<svg xmlns="http://www.w3.org/2000/svg" width="1000" height="1000" fill="none"><g clip-path="url(#a)"><path fill="#E3DAC3" d="M500.6 56.5S296.6 283.6 397.2 474C587 387 500.6 56.5 500.6 56.5Z"/><path fill="#EBE4CC" d="M484.8 117a1220.9 1220.9 0 0 1-15.3 91c-6.2 29.8-13 59.8-19.8 89.7a2269.2 2269.2 0 0 1-23.7 88.7c-9 29.4-18 58.8-28.8 87.6 3.4-30.5 9-61 15.2-91 6.2-29.9 13-59.8 19.8-89.8a2270.9 2270.9 0 0 1 23.7-88.7c9-29.4 18.1-58.7 28.9-87.5Z"/><path fill="#E3DAC3" d="M343 263.8 307.2 278c41.8 129.3 94.4 215.2 94.4 215.2l20.3-4.5c0 .6-50.8-93.2-79-224.9Z"/><path fill="#EEE2C4" d="M315.8 835C408 948.6 548 986.4 622.6 892c69-86.4 25.4-266.6-67.2-380.1-92.1-113.6-227.7-145.8-305.1-48-71.8 90.3-26.6 257.6 65.5 371.1Z"/><path fill="#EBE2C4" d="M456 753.7c92 113.5 229.9 152.5 302.8 59.3 67.2-85.9 22.6-265.5-69-379.1-92-113.6-225.4-146.9-301.7-50.3-70 89.3-24.3 256 67.8 370Z"/><path fill="#E3DAC3" d="M674.6 470.6c9 0 23.7 15.3 32.2 30.5 8.5 15.3 8.5 28.3-1.1 28.3-9 0-23.2-14.7-31.7-30-8.5-14.7-9-28.8.6-28.8Zm-97.2 349.7c-9.6-5.6-14.7-14-10.2-18.6 4-4 17-1.7 26.6 4 9.6 5.6 14.1 13.5 9.6 18.6-5 4-17 1.1-26-4Zm-6.8-378c2.3-5 12.4-2.2 21.5 4.6 9 6.2 15.2 15.8 13 21.5-2.3 5-12.4 2.2-21-4-9-6.8-15.7-16.4-13.5-22Zm169.5 182c-5-1.1-9.6-10.2-11.3-18-1.7-8.6.6-15.3 5.7-13.6 4.5 1 9.6 10.1 11.3 18.6 2.2 7.9 0 14.1-5.7 13ZM569 381.3c-4 2.9-13.5 0-20.9-4.5-7.3-4.5-10.1-10.7-6.2-13.5 4-2.9 14.1 0 21.5 4.5 7.3 5 10.2 10.7 5.6 13.6Zm-79.6 10.8c-4 3.4-13.6 1.7-21.5-2.3-8-4-11.3-10.1-7.3-13.5 4-2.9 14-1.2 21.4 2.2 8.5 4 11.9 10.2 7.4 13.6ZM760 679.7c6.2 5 8.5 22 6.2 36.7s-8.5 24.8-15.2 19.8c-6.3-4.6-8.5-23.2-6.3-37.9 1.7-14.1 8.5-23.7 15.3-18.6Zm-204 53.6c5.1-1.1 13.6 4.5 18.7 10.8 5 6.7 5.6 14 .5 15.2-5 1.1-13.5-4.5-18.6-11.3-5.7-6.2-6.2-13-.6-14.7Z"/></g><defs><clipPath id="a"><path fill="#fff" d="M0 0h1000v1000H0z"/></clipPath></defs></svg>