<svg xmlns="http://www.w3.org/2000/svg" width="1000" height="1000" fill="none"><g clip-path="url(#a)"><path fill="#EBE2C4" d="M708.5 667.2C574 937.8 332.2 928.8 279.7 904.5a54.5 54.5 0 0 1-31.1-44 53.6 53.6 0 0 1 12.4-37.9c53.7-66.7 436.7-209.6 188.2-633.9 0 0-11.3-14.7-24.3-15.8-14.7-1.2-45.8 20.3-45.8 20.3l22-45.2-20.3-18 37.8-44.7s52.6 53.7 69 58.2c135 41.2 358.2 247.5 220.9 523.7Z"/><path fill="#E9DFC5" d="M606.8 630C504 836.6 333.9 868.3 249.2 860.4a53.6 53.6 0 0 1 12.4-37.9c53.6-66.7 436.7-209.6 188.1-633.9 0 0-11.3-14.7-24.3-15.8-14.7-1.1-45.7 20.3-45.7 20.3l22-45.2-21-18 1.2-1.2a71 71 0 0 0 19.2 12.4C526.5 179.7 734.5 371.8 606.8 630Z"/><path fill="#E1D5BA" d="M369 197.7c11.2 5.7 31-17.5 45.7-46.9 14.7-29.3 15.8-59.8 4-65.5-11.4-5.6-36.2 26.6-50.3 56-14.7 29.9-10.8 50.8.5 56.4Z"/><path fill="#E3DAC3" d="M715.8 446.3c2.3 14.1 0 23.8 4.5 25.4 5.7 1.8 10.8-13.5 8.5-27-2.2-14.2-10.7-27.2-17-23.2-3.3 2.2 1.8 10.7 4 24.8Zm-53-124.8c5 8.4 6.1 15.2 10 14.7 5.2-.6 5.2-12.5 0-20.4-5-8.5-14-14.1-18-9.6-2.8 2.8 2.8 6.8 8 15.3ZM689.2 614c-3.4 10.2-8.5 15.8-5.1 18.7 4.5 4 13.5-4.6 17-14.2 3.3-10.1 1.6-21.4-5.2-22-4-.6-3.4 7.3-6.7 17.5Zm-44.1 43.5c-3.4 7.4-8 11.9-5.7 14.1 2.9 3.4 11.4-2.2 14.7-9.6 3.4-7.3 3.4-16.9-2.2-17.5-3.4-.5-3.4 5.1-6.8 13Zm3.4 50.9c-4 5-8 7.9-6.8 10.1 1.7 2.9 9 0 13-5 4-5.1 5-13 1.1-14.2-2.2-1.1-3.4 4-7.3 9Zm-11.9-439.6c4 5.1 5.7 9.6 8 9 3.3-1 2.2-8.4-1.8-14-4-5.1-10.7-8.5-13-5.1-1.7 2.8 2.9 5 6.8 10.1Zm36.7 124.9c3.4 9 3.4 15.2 6.8 15.2 5.1 0 6.8-10.7 3.4-19.7s-11.3-15.9-15.8-12.5c-2.8 3.4 2.3 8 5.7 17Zm5.1 84.7c1.2 8.5-.5 14.2 2.9 14.7 4.5 1.1 8.4-7.9 7.3-15.8-1.1-8.5-6.2-16.4-10.7-14.1-3.4 1.7-.6 6.8.5 15.2Zm37.3 67.3c-1.7 7.9-4.5 12.4-1.7 14.7 4 2.8 10.2-4.6 11.9-12.5 1.7-7.9 0-18-5.7-17-4 1.2-2.8 6.3-4.5 14.8Z"/></g><defs><clipPath id="a"><path fill="#fff" d="M0 0h1000v1000H0z"/></clipPath></defs></svg>