<svg xmlns="http://www.w3.org/2000/svg" width="1000" height="1000" fill="none"><g clip-path="url(#a)"><path fill="#E9DFC5" d="M497.7 73.5s27.2 282.4 235 303.3c66.2-196.6-235-303.4-235-303.4Z"/><path fill="#E3DAC3" d="M497.7 73.5a1261 1261 0 0 1 62.2 73.4c10.2 12.4 19.8 24.8 30 37.8l28.7 38.5c9.6 13 19.8 24.8 29.4 37.8l29.4 37.9a1304 1304 0 0 1 55.4 78.5 1577.5 1577.5 0 0 1-65.6-70.6c-20.9-24.3-41.8-48.6-61.6-74l-28.2-39c-9-13-18.6-26-27.7-39.6-18-26.5-35.6-53-52-80.8Z"/><path fill="#E3DAC3" d="m754.2 346.3 9 29.4c-218.6 91-408.4 52.5-408.4 52.5l-4-14.6s222 33.3 403.4-67.3Z"/><path fill="#E3DAC3" d="m780.2 362.7-26-16.4C609 532.8 595 726 595 726l13.6 7.3c0 .6 27-222 171.7-370.6Z"/><path fill="#ECE3C5" d="M252.5 565.5c69 2.9 129.4-27.7 136.8-84.1a72.5 72.5 0 0 0-13-52.6s24.3-23.7 26.5-49.7c3.4-43-40-101.7-124.8-113-88.7-11.9-148 50.8-157.7 132.8-12.4 100.5 50.9 163.3 132.2 166.6Z"/><path fill="#E9DFC5" d="M193.2 499.4c-17.5-10.1-26.5-21.4-32.2-18-7.3 4.5 5.1 24.3 22.6 34.4 17.5 10.2 40.1 13 41.3 2.8.5-6.7-14.2-9-31.7-19.2Zm58.2-16.3c-10.7-4.6-17-10.2-20.3-6.8-4.5 4.5 4 15.8 14.7 19.8 10.7 4.5 24.3 3.3 24.3-4 .5-5-8-5-18.7-9Zm25.4 42.3c-12.4-2.2-19.7-5.6-23.1-1.1-4.5 6.2 7.9 15.3 20.3 17.5 12.4 1.7 27.7-2.3 25.4-10.2-1.7-7.3-10.1-4.5-22.6-6.2Zm68.4-31c-10.2.5-15.8-1.2-17.5 2.8-2.3 5 8.5 10.7 18 10.1 10.2-.5 21-6.2 17.6-11.8-2.3-5.1-8.5-1.7-18.1-1.2Z"/><path fill="#ECE3C5" d="M713 837.3c16.4-65.5-.6-128.8-53.1-147.5a69.3 69.3 0 0 0-53.1 2.3s-18.1-28.3-41.8-35.6c-40.7-11.9-105.1 18-132.8 97.2-28.8 82.5 32.2 153.6 96.6 174.5 75.2 24.9 165-14 184.2-91Z"/><path fill="#E9DFC5" d="M619.8 888.7c-17.5 9.6-31.1 11.3-31.1 17.5-.6 8.5 21.5 8 38.4-1.1 17.5-9.6 31.7-27.1 24.3-33.3-5-4-14.7 7.3-31.6 16.9Zm5-58.8c-7.3 8.5-14.6 12.5-13 16.4 2.3 5.7 14.8 1.7 22.1-7.3 7.3-8.5 11.3-21.5 5-24.3-3.3-1.7-6.1 6.8-14 15.2Zm45.3-9.6c-6.3 11.3-12 16.4-9 21 3.9 6.2 15.7-2.3 22-13.6 6.2-11.3 7.9-26.6 0-27.1-6.3 0-6.8 8.4-13 19.7Zm-2.3-71.7c.6 10.2-.6 15.8 2.8 17.5 5.1 2.3 9.6-8.5 8.5-18.6-.6-10.2-6.2-20.4-11.3-17.6-4 2.9-.6 8.5 0 18.7Z"/></g><defs><clipPath id="a"><path fill="#fff" d="M0 0h1000v1000H0z"/></clipPath></defs></svg>