<svg xmlns="http://www.w3.org/2000/svg" width="1000" height="1000" fill="none"><g clip-path="url(#a)"><path fill="#E9DFC5" d="M843 413c-40.7-172.3-226-295-430.6-243-188.7 48-285.8 259.4-245.2 431.1C208 773.4 391.5 887.6 604.5 834c196-49.8 279.1-248.7 238.5-421Z"/><path fill="#EBE2C4" d="M511.9 204.5c141.8 0 257 84.8 287 210.8 33.9 143.4-44.1 333.3-211.3 375.7a346.2 346.2 0 0 1-83.7 10.7c-138.4 0-261-92.1-291-219.2-34.4-145.8 32.9-322.6 205.2-366.1a374.4 374.4 0 0 1 93.8-11.9Z"/><path fill="#E9DFC5" d="M423.7 608c-50.8-38.5-70-100.7-46.9-153.8 26.6-61 106.3-108.4 177.4-78.5a169.6 169.6 0 0 1 32.8 18.7c49.7 37.8 69.5 103.9 45.8 158.2-26.6 61.5-98.9 107.3-173 76.2-11.8-5-24.2-12.4-36-20.9Z"/><path fill="#E3DAC3" d="M504 230.5c-6.3-9.6-12 9-13 37.9-1.2 29.3 1.7 65.5 7.3 74 6.2 9.6 11.9-10.8 13-40.1.6-28.9-1.7-62.8-7.4-71.8Zm0 432.8c-6.3-9.6-12 9-13 37.8-1.2 29.4 1.7 65.6 7.3 74 6.2 9.6 11.9-10.7 13-40 .6-28.3-1.7-62.8-7.4-71.8ZM783 500c9.7-6.2-9-11.9-37.8-13-28.8-1.1-65 1.7-74 7.3-9.6 6.3 10.7 12 39.5 13 28.9 1.2 63.3-1 72.4-7.3Zm-442.9 0c9.6-6.2-9-11.9-37.8-13-28.8-1.1-65 1.7-74 7.3-9.6 6.3 10.7 12 39.5 13 28.8 1.2 63.3-1 72.3-7.3Zm-23.7-186.4c-11.3-2.3-2.3 14.6 17.5 36.1s47 45.2 57 47.5c10.8 2.2.6-15.8-18.6-37.3-19.8-21.5-45.7-43.5-55.9-46.3Zm305 306.2c-11.2-2.3-2.2 14.7 17.6 36.1s46.9 45.2 57 47.5c10.8 2.3.6-15.8-18.6-37.3-19.2-21.5-45.2-44-56-46.3Zm82.6-313c2.2-11.3-14.7-2.3-36.2 17.5s-45.2 47.4-47.5 57c-2.2 10.8 15.9.6 37.3-19.2 21.5-19.2 44.1-44.6 46.4-55.3ZM390.4 620.9c2.3-11.3-14.7-2.3-36.2 17.5s-45.2 47.5-47.4 57c-2.3 10.8 15.8.6 37.3-19.1 22-19.2 44-45.2 46.3-55.4ZM440 361c8 0 10.2-10.2 6.2-20.9-4-10.7-13-21.5-20.3-21.5-8.5 0-10.7 9.6-6.8 21 4 10.7 13.6 21.4 21 21.4Zm130.5 287c-8.5 0-10.7 9.6-6.8 21 4 10.7 13.6 22 21 21.4 7.9 0 10.1-10.2 6.2-20.9-4-10.7-12.5-21.5-20.4-21.5Zm0-290.4c7.4 0 17-10.7 21-21.4 3.9-10.8 1.6-20.4-6.9-21-7.9 0-16.3 10.2-20.3 21.5-4 10.8-1.7 21 6.2 21Zm-130 287c-7.8 0-16.3 10.2-20.3 21.5-4 10.7-1.7 21 6.3 21 7.3 0 16.9-10.8 20.8-21.6 4-11.3 1.8-20.9-6.7-20.9ZM647 437.3c0 7.9 10.2 10.2 20.9 6.2 10.7-4 21.5-13 21.5-20.3 0-8.5-9.6-10.8-20.4-6.8-10.7 4-22 13.6-22 20.9ZM360.5 567.8c0-8.5-9.7-10.7-20.4-6.8-10.7 4-22 13.6-21.5 21 0 7.8 10.2 10.1 21 6.1 10.7-3.4 20.8-12.4 20.8-20.3Zm289.8.6c0 7.3 10.7 17 21.5 20.9 10.7 4 20.3 1.7 20.3-6.8 0-8-10.2-16.4-21-20.3-10-4.6-20.2-2.3-20.8 6.2ZM364.4 437.9c0-8-10.2-16.4-20.9-20.4-11.3-4.5-21.5-2.2-21.5 6.2 0 7.4 10.8 17 21.5 21 10.7 3.9 20.3 1.6 20.9-6.8Z"/></g><defs><clipPath id="a"><path fill="#fff" d="M0 0h1000v1000H0z"/></clipPath></defs></svg>