<svg xmlns="http://www.w3.org/2000/svg" width="1000" height="1000" fill="none"><g clip-path="url(#a)"><path fill="#E9DDC1" d="m785.3 121.5-36.2-19.8c-79.6 122-116.3 223.2-116.3 223.2l17.5 14s44-105 135-217.4Z"/><path fill="#E9DDC1" d="M305.6 369c50.3-27.2 99.5-39 145.2-75.8 39-31.6 63.3-76.2 106.3-104 92.6-60.4 187.5-31 226.5 71.8C839 407.4 761 609.6 680.8 732.2 588 872.9 420.9 955.4 265.5 852.5 89.8 737.3 131.1 463.8 305.6 369Z"/><path fill="#EBE2C4" d="M417 858.8a232 232 0 0 1-133.4-39.6c-65.5-42.4-100.6-113.6-97.2-196 4-92.7 57.1-179.7 135.6-221.5 17-9 34-16.4 51.4-23.7 32.8-14.2 66.7-28.3 100-54.8a384.5 384.5 0 0 0 50.3-50.3c17-19.2 33.4-37.9 53.1-50.3a144.4 144.4 0 0 1 73.5-24.9c45.7-1 81.9 26.6 101.7 78.6C786.4 366 769 535 652 709.6c-60.5 91-148.6 146.3-235 149.2Z"/><path fill="#E9DFC5" d="M572.3 641.2c40.1-80.8 22-172.8-54.8-196-70.6-21.5-163.8 44.6-204 125.4s-20.3 169 60 193.2c74 22.6 158.7-41.8 198.8-122.6Z"/><path fill="#E2D7BA" d="M372.3 546.9c-12.4 16.4-16.4 30.5-23.2 29.4-9-1.2-5-24.3 8-40.7 12.4-16.4 32.7-27.1 37.8-18.6 3.4 6.2-9.6 13.5-22.6 29.9Zm67.2 167.2c18.1-10.7 27.2-22 32.8-18.6 8 4.5-5 24.8-23.2 35-18 10.7-41.2 13-42.3 2.8-.6-6.7 14.7-8.4 32.7-19.2Zm-59.8-91c-5.7 12-6.8 21.5-11.9 21-6.8-.6-8-16.4-2.3-28.3 5.7-11.9 17.6-20.9 23.2-14.7 4 3.4-3.4 10.2-9 22Zm-39 60c1.7 12.4 6.8 19.7 1.7 22.5-7.4 3.4-18.1-8.4-19.8-20.9-1.7-12.4 4-25.4 13.6-23.7 6.2 1.1 2.8 10.2 4.5 22Zm122-192.7c-10.2 7.9-14.7 14.7-19.8 11.9-6.7-3.4 0-18.1 10.2-26 10.2-8 24.9-11.3 26.6-2.3 1.7 7.4-6.8 8.5-17 16.4Zm63.8 141.8c7.4-13.6 9.6-22.6 15.3-22 7.9.5 6.8 19.2-.6 32.7-7.3 13-21.4 23.8-26.5 15.3-3.4-7.3 4.5-12.4 11.8-26Zm17.6-105.7c4-10.7 4.5-17.5 9-18 6.8-.6 7.9 12.4 4 23.1-4 10.8-13.6 20.4-19.3 14.7-4-4 1.7-9 6.2-19.7Zm-75.2 86c1.1 5-5 19.1-11.9 28.2-7.3 9-14.6 11.8-15.8 5.6-1.1-5.6 6.2-17 13-25.4 6.8-9 13.6-14.1 14.7-8.5Zm17-89.9c.5 5-6.3 15.3-13.6 23.2-7.3 7.3-13.6 10.7-14.7 5.6-.6-5 5.7-15.8 13-23.7 6.8-8 14.7-10.2 15.3-5.1Z"/></g><defs><clipPath id="a"><path fill="#fff" d="M0 0h1000v1000H0z"/></clipPath></defs></svg>