<svg xmlns="http://www.w3.org/2000/svg" width="1000" height="1000" fill="none"><g clip-path="url(#a)"><path fill="#EBE2C4" d="M386.4 800c165 65 343 16.4 427.2-108a20.9 20.9 0 0 0 6.2 3 54.2 54.2 0 0 0 23.1 3.9c8 0 15.9-1.7 23.2-5.1a68.4 68.4 0 0 0 19.8-13.6 57.3 57.3 0 0 0 13-19.7 54.2 54.2 0 0 0 4-23.2 55.3 55.3 0 0 0-5.2-23.2 68.4 68.4 0 0 0-13.5-19.7 57.3 57.3 0 0 0-19.8-13c-2.3-.6-4-1.7-6.2-2.3 23.2-148-74-304.5-239.6-369.5-165-65-343.5-16.4-427 108-2.3-1.2-4-2.3-6.3-3a61.4 61.4 0 0 0-46.9 1.2 59.4 59.4 0 0 0-32.2 34 61.4 61.4 0 0 0 1.1 46.8 59.4 59.4 0 0 0 34 32.2c2.2.6 4.5 1.7 6.1 2.3-23.7 147.4 73.5 304 239 368.9Z"/><path fill="#E9DDC1" d="M386.4 800c107.4 42.4 220.4 36.2 309.6-7.3a694.5 694.5 0 0 1-80.2-25.5c-244-95.5-387.6-322-346.9-527a296.6 296.6 0 0 0-77.4 77.3c-2.2-1.1-4-2.3-6.2-2.8a61.4 61.4 0 0 0-46.9 1.1 59.4 59.4 0 0 0-32.2 34 61.3 61.3 0 0 0 1.1 46.8 59.4 59.4 0 0 0 34 32.2c2.2.6 4.5 1.7 6.1 2.3-23.7 147.4 73.5 304 239 368.9Z"/><path fill="#E3DAC3" d="M637.3 445.8a21 21 0 0 0 1.1-10.2 14.7 14.7 0 0 0-5-9 17.2 17.2 0 0 0-9.1-4.6 21 21 0 0 0-10.2 1.2c-3.4 1-6.2 4-7.9 6.7a19.5 19.5 0 0 0-2.8 10.2 15 15 0 0 0 3.4 9.6c2.2 2.8 5 5.1 7.9 6.2 4.5 1.7 9 1.7 13.5-.5 4-2.3 7.4-5.7 9-9.6Zm96.6 97.7c1.1-3.4 1.7-6.8.6-10.2a14.7 14.7 0 0 0-5.1-9 17.2 17.2 0 0 0-9-4.5 21 21 0 0 0-10.2 1.1c-3.4 1.1-5.7 4-8 6.8a19 19 0 0 0-2.8 9.6c0 3.4 1.2 6.8 3.4 9.6a17 17 0 0 0 8 6.2c2.2 1.1 4.5 1.1 6.7 1.1s4.5-.5 6.8-1.7a20.3 20.3 0 0 0 5.6-4c1.7-1 2.9-2.7 4-5Zm-9-124.3c1-3.4 1.7-6.8.5-10.2a14.7 14.7 0 0 0-5-9 17.2 17.2 0 0 0-9.1-4.5 21 21 0 0 0-10.2 1.1c-3.4 1.1-5.6 4-7.9 6.8a19 19 0 0 0-2.8 9.6 15.3 15.3 0 0 0 3.4 9.6 17 17 0 0 0 7.9 6.2c2.3 1.1 4.5 1.1 6.8 1.1s4.5-.5 6.7-1.7a20.3 20.3 0 0 0 5.7-4c1.7-.5 3.4-2.7 4-5Z"/></g><defs><clipPath id="a"><path fill="#fff" d="M0 0h1000v1000H0z"/></clipPath></defs></svg>