<svg xmlns="http://www.w3.org/2000/svg" width="1000" height="1000" fill="none"><g clip-path="url(#a)"><path fill="#E9DFC5" d="M753.1 169.5s-204 248.6-92.7 446.3c194.4-99.4 92.7-446.3 92.7-446.3Z"/><path fill="#E9DFC5" d="M541.8 50.9s-64.4 314.6 123.7 435c124.9-179.7-123.7-435-123.7-435Z"/><path fill="#EBE4CC" d="M548 50.9c12.4 35.6 23.2 71.7 33.4 107.9l15.2 54.2 14.1 54.2c4.5 18.1 10.2 36.2 15.3 54.3 5 18 10.2 36.1 14.7 54.2 9.6 36.2 18.6 72.9 26 110.2-13.6-35-25.5-70.6-37.3-106.2a2385.7 2385.7 0 0 1-32.8-108L583 217c-4.5-18.1-9-36.8-12.4-54.8A1952 1952 0 0 1 548 50.9Z"/><path fill="#E9DFC5" d="m740.1 439.6-28.8-27.2c-101.1 98.3-157.6 185.9-157.6 185.9l13 17.5s63.8-90.4 173.4-176.3Z"/><path fill="#EBE2C4" d="M745.2 815.3c82.5-121 53.7-302.9-92.1-399.5-134.5-88.7-317.5-30.5-400 90.4-82.5 121-49.7 297.2 101.7 397.8 140.1 92.6 308.5 32.7 390.4-88.7Z"/><path fill="#E3DAC3" d="M485.9 832.8c.5 17-13.6 30.5-28.3 31.6-14.7.6-27.7-11.9-28.2-31.6-.6-18.1 13-30 27.1-30.5 14.7-.6 28.8 11.8 29.4 30.5Zm48.6-97.2c10.7-3.4 24.3 1.1 29.3 12.4 4.6 10.2-2.8 21.5-13 24.9a25 25 0 0 1-16.9-1.2A24.2 24.2 0 0 1 522 760c-5.6-10.8 1.7-21 12.5-24.3Zm183-35.6c7.4 7.3 6.8 20.3 1.1 28.3-5.6 7.9-16.3 9-24.3.5-7.3-7.3-6.7-19.8-1-27.1 6.1-8 16.9-9.6 24.2-1.7Zm-79 123.2c.5-9.6 7.8-15.9 15.2-15.3a9 9 0 0 1 5 1.7 28.2 28.2 0 0 1 4.6 4 26.4 26.4 0 0 1 2.8 5.6c.6 2.3.6 4.5.6 6.8a16.5 16.5 0 0 1-15.8 15.8c-1.7 0-3.4-.6-5.1-1.7a28.3 28.3 0 0 1-4.6-4 20.9 20.9 0 0 1-2.8-6.2v-6.7Z"/><path fill="#E9DFC5" d="M344.6 837.9c.6-8 8-13 15.3-13 1.7 0 3.4.5 5 1 1.8.7 2.9 1.8 4.6 3.5 1.1 1.7 2.2 2.8 2.8 5 .6 1.8.6 4 .6 5.7-.6 8-8.5 13.6-15.8 13-1.7 0-3.4-.6-5.1-1.1-1.7-.6-2.9-2.3-4.5-3.4a22 22 0 0 1-2.9-5.1v-5.7Z"/><path fill="#E3DAC3" d="M704 622.6c-5.7-5-3.4-11.9 1.7-15.8a16 16 0 0 1 10.1-2.3c4 .6 7.4 1.7 9.6 4 5.1 4.5 3.4 11.8-1.7 15.8-5 4-14.1 4-19.8-1.7ZM557.6 896c-6.8-8.4-4-20.3 2.3-27 6.2-6.9 17.5-6.3 24.3 2.7 6.2 8.5 4 21.5-2.3 27.7-6.8 6.8-17.5 6.2-24.3-3.4Z"/></g><defs><clipPath id="a"><path fill="#fff" d="M0 0h1000v1000H0z"/></clipPath></defs></svg>