<svg xmlns="http://www.w3.org/2000/svg" width="1000" height="1000" fill="none"><path fill="#E9DFC5" d="M379.1 423.7h90.4v90.4h-90.4v-90.4Zm135.6-17H605v90.5h-90.4v-90.4Zm113 79.2H718v90.4h-90.4v-90.4ZM469.5 514h90.4v90.4h-90.4V514Zm113 73.5h90.4V678h-90.4v-90.4Zm-67.8 118.6H605v90.4h-90.4v-90.4Zm-113-62.1H492v90.4h-90.4V644Zm-90.4-67.8h90.4v90.4h-90.4v-90.4Z"/><path fill="#EBE2C4" d="M571.2 350.9a99 99 0 0 0 53.7-80.2c1-10.2 0-21-3.4-30.6a70.5 70.5 0 0 0-14.7-27.1c-8 39.5-20.4 65.5-40.1 86.4a237 237 0 0 1-25.5 22c2.9-5 5.7-10.1 8-15.2 9.6-23.1 13.5-48.6 11.3-73.4s-11.3-49.2-25-70c-5.6 48-10 90.3-25.9 125.9-3.4 7.3-6.8 14.1-11.3 20.9A174.5 174.5 0 0 0 500 261c-6.8-49.1-25.4-95.5-58.8-131.6 1.7 49.1 10.8 93.2 15.3 136.7a249 249 0 0 1 .6 61c0 1.1-.6 2.3-.6 3.4-.6-1.1-1.7-1.7-2.3-2.8a291.2 291.2 0 0 1-26-55.4c-14.6-40.7-25.4-84.7-45.1-130-14.7 47.5-11.4 97.3 4 144.1a183.7 183.7 0 0 0 22.5 43 95 95 0 0 1-19.2-14.1c-30-25-52-61.6-78-102.3a150.2 150.2 0 0 0 49.2 135.6 81.2 81.2 0 0 0 14.1 10.2c-10.7-2.3-22-5.1-32.2-9-27.1-9.7-49.7-27.8-73.4-60a92.6 92.6 0 0 0-1.7 30.5c1 10.2 5 20.4 10.1 28.8a100.2 100.2 0 0 0 48.6 41.9 94.2 94.2 0 0 0 35 6.7c-59.8 35-120.3 93.8-97.1 182.5C308 743 505.7 895.5 581.4 878.5c75.7-17 188-240 156.5-405.6-17.6-89.3-97.2-115.8-166.7-122ZM334.5 625.4s-27.2-31.6-8-36.1c18.1-4.5 8 36.1 8 36.1ZM446.9 704s-27.1-31.7-8-36.2c18.7-4.5 8 36.1 8 36.1Zm-30-213s-27-31.7-7.9-36.2c18.7-4.5 8 36.2 8 36.2Zm145.3 302.8s-27.2-31.6-8-36.2c18.1-4.5 7.4 36.2 8 36.2Zm-48-209s-27.2-31.7-8-36.2c18.7-4.5 8 36.2 8 36.2Zm47.4-126.6s-27.1-31.6-8-36.2c18.7-4.5 8.6 36.2 8 36.2Zm65 205s-27.2-31.6-8-36c19.3-4.6 8 36 8 36Zm67.8-119.1s-27.2-31.7-8-36.2c18.7-4.5 8 35.6 8 36.2Z"/></svg>