<svg xmlns="http://www.w3.org/2000/svg" width="1000" height="1000" fill="none"><g clip-path="url(#a)"><path fill="#E9DFC5" d="M771.8 480.2a516.8 516.8 0 0 1 1.7 83.6 510.7 510.7 0 0 1-27.2 136.8 455 455 0 0 1-41.8 88.7 413.6 413.6 0 0 1-140.7 140.6l-19.2-35L496 778l-38.4-93.1-13.5-32.2-32.8-78.6-14.7-35.6-18-41.2-21.5-30.5-16.4-23.8-50.3-71.2-33.3-46.9-61-85.8-57.1-80.8-20.4-37.3a551.4 551.4 0 0 1 149.2-43.5 492 492 0 0 1 104-2.8A443.5 443.5 0 0 1 539 121.5a398.2 398.2 0 0 1 67.2 43c40.1 31 74 68.8 100 112.3.6 1.2 1.7 2.3 2.3 4a525 525 0 0 1 28.2 56.5 540.1 540.1 0 0 1 35 143Z"/><path fill="#EEE2C5" d="M371.8 75.1c-14.7 26.6-30.6 56-46.4 88.2-30 62.1-51.4 117.5-68.9 161L196 239a985.2 985.2 0 0 1 44.7-110.7c8.5-17 17.5-34 26.5-50.3a498 498 0 0 1 104.6-3Zm374 625.5a455 455 0 0 1-41.8 88.7c-37.3 2.2-75.2 2.2-113 .5a773.3 773.3 0 0 1-95.5-11.3L457 685.3c39 5.1 83.6 10.2 134.4 13 58.8 4 110.8 2.8 154.3 2.3Zm26-220.4a516.8 516.8 0 0 1 1.7 83.6A835.5 835.5 0 0 1 594.4 630 840.2 840.2 0 0 1 444 653.1l-32.8-78.5c43.5-7.4 96-17 156-31.7 86.4-22 155.3-48 204.5-62.7ZM606.2 165c-36.7 34.4-88.7 79-145.8 139-50.2 53-89.2 101.7-119.7 139l-50.3-71.2A899 899 0 0 1 391 244.6 816.8 816.8 0 0 1 539.5 122a419.3 419.3 0 0 1 66.7 43Zm130 172.9C694.9 366 630.5 401 551.4 447.5c-61 35.6-113 67.8-155.4 91.5l-17.5-41.8-21.4-30.5c40.6-31.1 91.5-65 143.5-95.5 72.3-42.4 149.1-76.8 205-93.8.6 1.1 1.7 2.3 2.3 4a414 414 0 0 1 28.3 56.5Z"/><path fill="#EBE4CC" d="M139 158.2C314 91 552 132.8 663.3 315.8c3.4 5.7 7.3 11.9 10.7 18.1 56 101.7 71.2 217 43 324.9-26 99.4-88.7 185.3-172.4 236.1L532.8 874 383.6 503.4 151 179.7l-12-21.5Z"/><path fill="#EBE2C4" d="M150.8 179.7c74-27.7 159.4-35 241.3-19.2 109 20.9 197.7 80.7 250.8 167.8a479.5 479.5 0 0 1 10.2 17.5c53.1 96.6 67.2 205.6 40.7 307.3-24.3 93.2-83 173.4-161 221.5l-382-695Z"/><path fill="#E3DAC3" d="M590.4 742.4c-6.8-45.8-85.3 4.5-82.5 13 3.4 10.1 89.8 35 82.5-13ZM635 619.2c-7.3-31-59.9 18.6-57 24.3 3.4 6.8 64.4 7.3 57-24.3ZM472.3 437.8c-14.7-27-74.6 26.6-71.2 34 4 9.5 93.2 7.3 71.2-34Zm-44-223.1c-22.7-22-47.5 39.5-43 44 5.7 5.7 65-22 43-44Zm-145.8-13.6c-24.9-10.1-40.1 47-35 50.9 6.7 4.5 72.3-36.2 35-50.9Zm206.2 371.2c-19.8-35-72.9 31-69 38.4 4.6 8.5 94.4 6.2 69-38.4Zm-143-257.6c-24.2-22.6-66 43.5-61 49.7 6.3 8 99-14.7 61-49.7Zm216.4-21c30 38.5-65 69.6-74.5 58.8-8.5-9 36.7-107.9 74.5-58.7Zm69.5 157.7c13.6 37.9-70.6 36.2-73.4 28.8-4-9 59.9-66.6 73.4-28.8Zm36.8 88.2c-5.1-6.3-22-5.1-48-1.7-26 2.8-44.1 5.6-46.4 13-3.4 11.3 23.7 10.7 49.7 7.9 26-3.4 50.9-11.3 44.7-19.2Z"/><path fill="#EBE4CC" d="M430 342.4c-7.4-2.8-21.5 6.8-42.4 22.6s-35 27-33.4 34.4c2.3 11.3 26-2.2 47-18s38.4-35.6 28.7-39Zm95.4 328.2c-3.4-6.2-13-5-27.7-2.8-14.7 2.8-24.8 5-26 12.4-1 10.8 14.7 11.3 29.4 8.5 14.7-2.8 28.8-10.2 24.3-18ZM353.7 191c-6.2-2.3-13 4.5-22.6 16.4-9.6 11.8-15.3 20.3-11.3 26 6.2 9 18-1.2 27.7-13 9.6-11.4 15.2-26 6.2-29.4Zm243.5 184.7c-13.6 6.8-24.9 17-19.2 22 4.5 4 13.5 0 27-6.7 13.6-6.8 22.7-11.9 21.6-18.1-.6-8.5-15.9-3.4-29.4 2.8Z"/></g><defs><clipPath id="a"><path fill="#fff" d="M0 0h1000v1000H0z"/></clipPath></defs></svg>