<?xml version="1.0"?>
<svg width="500" height="500" xmlns="http://www.w3.org/2000/svg" xmlns:svg="http://www.w3.org/2000/svg" enable-background="new 0 0 500 500" version="1.1" xml:space="preserve">
 <g class="layer">
  <title>Layer 1</title>
  <path d="m501,183c0,106.33 0,212.17 0,318c-166.67,0 -333.33,0 -500,0c0,-166.67 0,-333.33 0,-500c166.67,0 333.33,0 500,0c0,60.5 0,121 0,182m-417.04,-50.03c0,0 0,-0.09 -0.53,0.08c-0.18,0.3 -0.36,0.61 -0.47,0.91c0,0 0,-0.07 -0.53,0.08c-0.18,0.3 -0.36,0.61 -0.47,0.92c0,0 0,-0.08 -0.52,0.09c-0.19,0.3 -0.38,0.6 -0.49,0.91c0,0 0,-0.08 -0.53,0.06c-0.18,0.31 -0.36,0.61 -0.48,0.93c0,0 -0.02,-0.06 -0.67,0.2c-0.05,0.45 -0.11,0.9 -0.26,1.4c0,0 0.05,0.09 -0.51,0.49c-0.43,0.57 -0.86,1.14 -1.55,2.41c-3.32,4.77 -6.96,9.34 -9.84,14.35c-1.92,3.35 -2.75,7.33 -4.78,11.36c-3.15,6.28 -3.71,12.99 -3.74,19.93c-0.34,0.13 -0.45,0.36 -0.57,1.45c-2.61,6.16 -5.23,12.33 -7.99,19.11c0.03,0.21 0.07,0.42 -0.05,0.78c0,0 0.1,0.2 -0.59,0.63c-1.4,5.31 -2.81,10.62 -4.36,16.6c0.04,0.45 0.09,0.91 -0.03,1.71c0,0 0.03,0.38 -0.71,0.81c-0.44,9.81 -1.02,19.62 -1.2,29.44c-0.05,2.21 1.27,4.44 1.9,6.96c0,0 0.16,0.26 0.02,1.12c0.06,1.44 0.11,2.87 0.1,4.9c0.35,0.47 0.71,0.95 0.94,2.18c2.29,5.45 4.59,10.89 6.89,16.26c0,0 -0.08,-0.01 0.04,0.74c0.98,2.08 1.95,4.17 3.09,6.76c0.29,0.19 0.59,0.38 0.88,0.49c0,0 -0.07,0.01 0.06,0.75c0.69,1.56 1.21,3.23 2.11,4.67c2.92,4.67 5.99,9.26 9.28,14.49c2.92,4.69 5.84,9.38 8.86,14.79c1.58,5.22 3.45,10.36 4.69,15.66c3.17,13.44 8.46,25.77 17.97,36.01c8.64,9.32 18.69,16.43 30.84,20.62c16.69,5.75 32.78,13.28 50.89,17.06c4.41,2.65 8.82,5.29 13.49,8.52c0.62,0.18 1.23,0.36 1.85,0.43c0,0 -0.11,0.01 0.16,0.66c2.61,1.48 5.22,2.97 7.83,4.36c0,0 -0.1,0 0.18,0.65c3.51,2.17 6.83,4.79 10.58,6.41c5.32,2.3 10.95,3.86 16.7,5.9c0,0 0.3,-0.05 0.71,0.65c19.21,6.05 37.55,3.69 55.39,-5.65c0,0 0.19,-0.15 0.99,-0.01c2.26,-1.36 4.52,-2.71 6.99,-3.99c0,0 0.16,-0.15 0.96,-0.01c0.66,-0.36 1.32,-0.72 2.03,-1.04c0,0 0.03,-0.06 0.79,0.03c0.36,-0.35 0.72,-0.69 1.19,-0.98c0,0 0.06,-0.12 0.82,-0.02c0.36,-0.35 0.72,-0.69 1.18,-0.99c0,0 0.04,-0.1 0.74,0c0.29,-0.32 0.58,-0.64 0.8,-0.97c0,0 0.03,0.06 0.52,-0.06c0.16,-0.28 0.33,-0.56 1.2,-0.96c1.46,-0.98 2.91,-1.97 4.28,-2.96c0,0 -0.01,0.08 0.72,-0.04c2.12,-1.32 4.25,-2.64 6.28,-3.96c0,0 0,0.09 0.69,-0.04c0.43,-0.64 0.87,-1.28 1.98,-2.17c1.54,-0.86 3.15,-1.6 4.59,-2.58c2.39,-1.63 4.67,-3.42 7.08,-4.72c0,0 0.41,-0.07 0.61,-0.24c0,0 0.06,-0.26 0.79,-0.31c4.07,-2.05 8.15,-4.11 12.92,-6.25c5.11,-2.63 10.22,-5.27 16.1,-7.78c3.97,-1.71 8.19,-3.01 11.87,-5.2c11.3,-6.72 21.58,-14.75 29.49,-25.42c6.72,-9.05 12.96,-18.38 15.84,-30.25c1.28,-2.61 2.57,-5.23 3.99,-8.62c1,-2.76 2,-5.52 3.65,-8.64c2.74,-5.91 5.47,-11.82 8.48,-18.44c2.31,-6.43 4.62,-12.86 7.6,-19.58c0.38,-1.37 0.77,-2.73 1.31,-4.25c0,0 -0.1,-0.18 0.61,-0.64c0.79,-3.73 1.85,-7.43 2.32,-11.2c0.88,-6.9 1.72,-13.84 1.99,-20.78c0.28,-6.91 -0.05,-13.85 -0.37,-20.77c-0.11,-2.43 -0.98,-4.84 -1.56,-8.1c-0.72,-5.65 -1.43,-11.29 -1.98,-17.83c-1.37,-29.05 -11.87,-53.83 -34.07,-73.68c-0.32,-0.22 -0.63,-0.44 -0.93,-0.6c0,0 0.07,-0.03 -0.08,-0.53c-0.3,-0.17 -0.59,-0.34 -0.92,-0.45c0,0 0.07,-0.01 -0.08,-0.54c-0.31,-0.18 -0.61,-0.36 -0.92,-0.47c0,0 0.07,0 -0.08,-0.53c-0.31,-0.18 -0.61,-0.36 -0.92,-0.48c0,0 0.07,0 -0.05,-0.54c-0.31,-0.18 -0.62,-0.35 -0.94,-0.46c0,0 0.07,-0.01 -0.07,-0.54c-0.31,-0.18 -0.62,-0.35 -0.93,-0.46c0,0 0.07,0 -0.09,-0.52c-0.3,-0.19 -0.61,-0.37 -0.91,-0.48c0,0 0.07,0 -0.07,-0.54c-0.31,-0.18 -0.62,-0.35 -0.93,-0.46c0,0 0.07,0 -0.09,-0.53c-0.31,-0.18 -0.61,-0.36 -0.92,-0.46c0,0 0.08,0 -0.08,-0.53c-0.31,-0.18 -0.62,-0.36 -0.92,-0.48c0,0 0.07,0 0,-0.72c-0.66,-0.45 -1.33,-0.9 -1.99,-1.27c0,0 0.07,0 -0.09,-0.53c-0.31,-0.18 -0.62,-0.37 -0.92,-0.47c0,0 0.08,-0.01 0,-0.73c-0.67,-0.45 -1.33,-0.9 -2,-1.27c0,0 0.08,0 -0.08,-0.53c-0.31,-0.18 -0.62,-0.37 -0.92,-0.48c0,0 0.07,-0.01 -0.17,-0.62c-0.62,-0.16 -1.24,-0.33 -1.86,-0.82c0,0 -0.17,-0.29 -0.08,-1.01c-1.96,-1.53 -3.91,-3.06 -5.89,-4.53c0,0 0.06,0 -0.08,-0.54c-0.31,-0.18 -0.62,-0.36 -0.93,-0.47c0,0 0.06,-0.02 -0.01,-0.72c-1.96,-2.1 -3.93,-4.2 -5.99,-6.94c-0.32,-0.47 -0.65,-0.94 -1,-1.33c0,0 0.08,0.02 -0.06,-0.53c-0.32,-0.18 -0.64,-0.36 -0.96,-0.45c0,0 0.1,0 -0.04,-0.55c-0.32,-0.18 -0.64,-0.37 -0.94,-0.48c0,0 0.07,-0.01 -0.13,-0.65c-0.43,-0.06 -0.85,-0.12 -1.41,-0.34c0,0 -0.19,0.07 -0.45,-0.62c-1.33,-1.16 -2.66,-2.33 -4.03,-3.39c0,0 0.1,0.05 -0.06,-0.55c-0.32,-0.25 -0.65,-0.5 -1,-1.09c-0.12,-0.23 -0.31,-0.32 -0.96,-0.9c-0.45,-0.1 -0.9,-0.2 -1.49,-0.45c0,0 -0.19,0.06 -0.48,-0.48c-0.34,-0.2 -0.68,-0.4 -1.01,-0.5c0,0 0.1,0 -0.04,-0.56c-0.32,-0.18 -0.64,-0.36 -0.93,-0.47c0,0 0.08,-0.03 -0.16,-0.66c-0.95,-0.48 -1.9,-0.97 -2.84,-1.36c0,0 0.09,0 -0.18,-0.64c-1,-0.38 -2.01,-0.77 -3.35,-1.31c0,0 -0.37,-0.01 -0.57,-0.55c-0.32,-0.18 -0.65,-0.35 -0.96,-0.41c0,0 0.12,-0.01 -0.02,-0.58c-0.32,-0.18 -0.65,-0.37 -0.98,-0.43c0,0 0.12,0 -0.02,-0.57c-0.32,-0.18 -0.65,-0.37 -0.95,-0.43c0,0 0.12,-0.02 -0.09,-0.62c-0.38,-0.09 -0.76,-0.18 -1.37,-0.43c0,0 -0.27,0.06 -0.55,-0.49c-0.34,-0.19 -0.68,-0.39 -0.96,-0.48c0,0 0.1,-0.06 -0.16,-0.68c-0.95,-0.49 -1.9,-0.98 -2.85,-1.38c0,0 0.1,-0.01 -0.18,-0.67c-1.05,-0.38 -2.1,-0.76 -3.33,-1.3c0,0 -0.23,0.06 -0.52,-0.48c-0.34,-0.2 -0.68,-0.4 -0.97,-0.5c0,0 0.1,-0.06 -0.17,-0.71c-1.6,-0.8 -3.21,-1.6 -4.82,-2.33c0,0 0.06,-0.03 -0.2,-0.7c-1.93,-0.79 -3.86,-1.59 -5.79,-2.32c0,0 0.07,0 -0.23,-0.67c-5.82,-2.51 -11.53,-5.33 -17.5,-7.45c-7.6,-2.69 -14.73,-7.17 -23.86,-6.82c-0.53,-0.24 -1.07,-0.49 -1.56,-1.57c-8.63,-3.59 -17.66,-3.87 -27.73,-3.43c-5.08,0.07 -10.16,0.13 -16.09,0.06c-9.33,2.44 -18.72,4.72 -27.97,7.42c-3.22,0.94 -6.14,2.94 -9.87,4.74c-4.69,1.63 -9.37,3.26 -14.82,4.88c-4.51,1.65 -9.14,3.05 -13.52,4.99c-10.05,4.47 -19.98,9.21 -29.89,13.91c0,0 -0.07,-0.07 -0.79,0.01c-3.77,2.31 -7.54,4.62 -12.05,7c-6.64,4.75 -13.61,9.11 -19.84,14.35c-9.05,7.61 -17.55,15.85 -26.95,23.65c-0.82,0.62 -1.64,1.25 -2.4,1.98c0,0 -0.04,-0.11 -0.56,0.04c-0.18,0.3 -0.36,0.6 -0.47,0.91c0,0 -0.01,-0.06 -0.53,0.09c-0.18,0.3 -0.36,0.61 -0.45,0.92c0,0 0,-0.08 -0.61,0.12c-0.27,0.32 -0.54,0.65 -1.1,0.98c-0.2,0.11 -0.26,0.27 -0.7,0.88c-0.23,0.35 -0.45,0.7 -0.59,1.04z" fill="#ffffff" id="svg_1" opacity="1" stroke="#ffffff"/>
  <path d="m345.99,410.83c-4.07,2.05 -8.15,4.11 -12.7,6.21c-0.48,0.05 -0.69,0.18 -0.69,0.18c0,0 0.18,0.25 0.18,0.25c0,0 -0.41,0.07 -0.81,-0.04c-1.35,0.19 -2.33,0.42 -3.25,0.8c-20.66,8.38 -42.06,12.65 -64.44,13.01c-28.34,0.46 -55.99,-3.12 -83.21,-11.85c-2.49,-1.57 -4.79,-2.88 -7.26,-4.49c-6.33,-4.24 -12.5,-8.17 -18.82,-12.27c-0.38,-0.39 -0.64,-0.55 -1.06,-0.93c-0.73,-0.76 -1.34,-1.24 -2.14,-1.75c-0.19,-0.04 -0.57,-0.06 -0.69,-0.38c-1.45,-1.41 -2.78,-2.5 -4.29,-3.74c-0.42,-0.36 -0.65,-0.58 -1.04,-1.09c-2.04,-1.43 -3.91,-2.59 -5.97,-3.78c-0.19,-0.04 -0.59,-0.07 -0.71,-0.39c-5.09,-4.09 -10.06,-7.87 -15.06,-11.61c-0.03,0.04 0.04,-0.03 -0.05,-0.35c-5.39,-4.75 -10.69,-9.18 -15.98,-13.6c0,-0.01 -0.01,-0.01 -0.15,-0.2c-0.34,-0.44 -0.59,-0.64 -1.08,-0.95c-0.66,-0.42 -1.11,-0.68 -1.72,-1.16c-0.43,-0.44 -0.7,-0.67 -1.06,-1.22c-2.07,-2.37 -4.05,-4.42 -6.16,-6.66c-0.33,-0.44 -0.57,-0.64 -1.01,-1.03c-0.72,-0.74 -1.27,-1.25 -1.89,-2.1c-1.32,-1.51 -2.57,-2.69 -3.93,-4.13c-0.66,-0.75 -1.21,-1.24 -1.83,-2.08c-2.44,-3.05 -4.82,-5.75 -7.19,-8.46c0.01,0 -0.01,-0.01 -0.05,-0.27c-0.31,-0.72 -0.57,-1.17 -0.98,-1.91c-0.73,-1.47 -1.32,-2.63 -1.95,-4.2c-2.53,-14.11 -5.29,-27.77 -7.45,-41.52c-3.12,-19.82 -5.77,-39.7 -8.67,-59.55c-0.91,-6.2 -1.96,-12.38 -2.94,-19c0.08,-2.46 0.16,-4.49 0.55,-6.7c0.59,-0.58 1,-0.93 1.16,-1.38c3.36,-9.8 6.53,-19.68 10.11,-29.4c2.05,-5.56 4.78,-10.86 7.22,-16.44c0.02,-0.17 0.08,-0.5 0.37,-0.64c0.71,-0.82 1.14,-1.5 1.6,-2.37c0.02,-0.19 0.1,-0.57 0.38,-0.69c0.73,-0.76 1.17,-1.4 1.85,-2.29c4.1,-5.33 7.97,-10.42 12.05,-15.68c0.47,-0.45 0.73,-0.72 1.08,-1.01c0.09,-0.02 0.28,-0.01 0.55,-0.18c0.56,-0.73 0.84,-1.28 1.13,-1.81c0,0.03 -0.04,0 0.3,-0.06c1.32,-0.67 2.34,-1.22 3.26,-1.9c19.79,-14.48 39.58,-28.96 59.35,-43.47c2.48,-1.83 4.88,-3.77 7.44,-5.66c0.13,-0.01 0.38,0.06 0.59,-0.03c0.5,-0.24 0.75,-0.44 1.3,-0.78c1.5,-0.59 2.64,-1.08 4.05,-1.47c0.64,0.11 1.02,0.14 1.84,0.2c18.85,-1.23 37.23,-3.14 55.64,-3.61c24.81,-0.64 49.65,-0.17 74.47,-0.14c1.99,0.01 3.98,0.28 5.96,0.48c10.06,1.02 20.12,2.06 30.53,3.16c14.64,5.95 27.5,14.08 39.02,24.37c1.47,1.31 3.55,1.93 5.34,2.88c0,0 -0.06,0.02 -0.06,0.3c0.36,0.43 0.72,0.58 1.07,0.73c0,0 -0.06,0 -0.19,0.31c-0.06,0.8 0,1.28 0.07,2.13c0.32,1.3 0.43,2.38 0.98,3.14c6.98,9.63 14.21,19.09 21.03,28.84c16.78,23.99 25.35,51.01 29.11,79.81c0.87,6.65 2.57,13.2 3.91,20.26c-0.24,7.48 -0.5,14.49 -0.95,21.66c-0.13,0.73 -0.07,1.3 -0.02,2.3c-0.13,2.1 -0.26,3.77 -0.67,5.66c-0.67,1.45 -1.11,2.67 -1.45,3.92c-4.05,15.01 -8.1,30.01 -12.1,45.03c-0.45,1.67 -0.57,3.43 -0.84,5.14c-0.99,2.77 -1.99,5.53 -3.37,8.74c-2.46,3.67 -4.53,6.88 -6.61,10.09c0,-0.01 0.01,-0.02 -0.32,0.05c-2.19,2.14 -4.09,4.18 -5.88,6.31c-3.95,4.68 -7.62,9.62 -11.79,14.1c-14.32,15.36 -30.9,28.03 -48.02,40.09c-2.09,1.47 -3.35,4.15 -4.99,6.27m-80,-14.11c14.73,-2.56 29.08,-6.25 43.26,-11.2c12.41,-4.33 23.49,-10.64 33.3,-18.91c7.68,-6.46 14.76,-13.92 20.87,-21.89c6.73,-8.8 12.46,-18.44 17.86,-28.14c6.04,-10.87 11.37,-22.11 13.36,-34.68c1.38,-8.66 4.16,-17.12 5.13,-25.8c1.11,-9.89 1.01,-19.92 1.22,-29.89c0.46,-20.97 -6.94,-39.78 -17.7,-57.06c-8.57,-13.76 -17.54,-27.53 -29.91,-38.41c-6.96,-6.12 -13.84,-12.57 -21.68,-17.36c-8.99,-5.48 -18.91,-9.51 -28.6,-13.77c-11.37,-4.99 -22.66,-10.49 -35.39,-11.16c-12.77,-0.68 -25.6,-1.51 -37.62,4.3c-8.46,4.09 -17.07,7.96 -25.21,12.63c-10.34,5.95 -20.68,12.06 -30.29,19.1c-11.64,8.51 -22.81,17.73 -33.63,27.28c-9.46,8.34 -18.8,17.01 -27.02,26.53c-10.38,12.01 -15.52,26.77 -19.03,42.2c-3.63,15.94 -0.87,31.83 -0.44,47.73c0.16,6.09 1.41,12.29 3.12,18.16c7.29,25.06 24.27,43.65 42.7,60.78c9.34,8.68 20.4,15.58 31.05,22.76c15.53,10.46 32.94,17.29 50.78,22.27c13.85,3.87 28.35,5.86 43.87,4.53z" fill="#3f9097" id="svg_2" opacity="1" stroke="#3f9097"/>
  <path d="m181.25,419.66c27.04,8.46 54.69,12.04 83.03,11.58c22.38,-0.36 43.78,-4.63 64.44,-13.01c0.92,-0.38 1.9,-0.61 3.21,-1c-1.97,1.61 -4.25,3.4 -6.64,5.03c-1.44,0.98 -3.05,1.72 -5.22,2.81c-1.1,0.85 -1.57,1.46 -2.04,2.07c0,0 0,-0.09 -0.34,-0.13c-2.44,1.35 -4.55,2.74 -6.67,4.12c0,0 0.01,-0.08 -0.3,-0.13c-1.79,0.63 -3.27,1.3 -4.97,2.18c-0.39,0.77 -0.54,1.34 -0.69,1.91c0,0 -0.03,-0.06 -0.32,-0.04c-0.59,0.3 -0.9,0.57 -1.21,0.85c0,0 -0.04,0.1 -0.44,0.13c-0.78,0.31 -1.16,0.59 -1.54,0.86c0,0 -0.06,0.12 -0.47,0.15c-0.79,0.3 -1.16,0.58 -1.54,0.86c0,0 -0.03,0.06 -0.3,-0.14c-1.03,0.24 -1.8,0.67 -2.56,1.1c0,0 -0.16,0.15 -0.66,0.1c-2.76,1.27 -5.02,2.59 -7.29,3.9c0,0 -0.19,0.15 -0.73,0.1c-2.29,0.44 -4.09,0.8 -5.78,1.44c-10.69,4.06 -21.72,6.27 -33.17,5.53c-5.46,-0.35 -10.88,-1.3 -16.31,-1.97c0,0 -0.3,0.05 -0.67,-0.3c-6.47,-3.21 -12.57,-6.1 -18.69,-8.93c-2.8,-1.3 -5.66,-2.46 -8.5,-3.68c0,0 0.1,0 0.03,-0.3c-2.72,-1.77 -5.38,-3.24 -8.03,-4.71c0,0 0.11,-0.01 0.03,-0.18c-0.73,-0.4 -1.38,-0.62 -2.04,-0.85c-4.4,-2.64 -8.81,-5.28 -13.48,-8.35c-0.21,-0.62 -0.18,-0.81 -0.14,-1z" fill="#3f9097" id="svg_3" opacity="1" stroke="#3f9097"/>
  <path d="m181.07,419.39c0.14,0.46 0.11,0.65 -0.01,1.12c-17.52,-3.21 -33.61,-10.74 -50.3,-16.49c-12.15,-4.19 -22.2,-11.3 -30.84,-20.62c-9.51,-10.24 -14.8,-22.57 -17.97,-36.01c-1.24,-5.3 -3.11,-10.44 -4.43,-16.01c0.68,-0.35 1.1,-0.35 1.51,-0.34c0.6,1.17 1.19,2.33 1.94,4.07c0.43,1.01 0.72,1.45 1,1.9c0,0 0.02,0.01 0.06,0.36c1.89,3.17 3.74,5.99 5.71,9.12c1.16,1.78 2.18,3.24 3.3,4.88c0.25,0.38 0.44,0.55 0.77,1.02c6.41,7.57 12.3,15.19 19.06,21.95c12.87,12.85 27.73,23.04 44.4,31.1c6.39,3.41 12.54,6.59 18.7,9.77c2.31,1.3 4.61,2.61 7.1,4.18z" fill="#3f9097" id="svg_4" opacity="1" stroke="#3f9097"/>
  <path d="m79,330.64c-0.38,0.39 -0.8,0.39 -1.53,0.38c-3.23,-4.7 -6.15,-9.39 -9.2,-14.79c-2.96,-6.8 -5.79,-12.9 -8.6,-19.39c-0.21,-1.35 -0.38,-2.34 -0.7,-3.28c-9.5,-27.63 -5.62,-55.11 0.97,-82.56c0.98,6.19 2.03,12.37 2.94,18.57c2.9,19.85 5.55,39.73 8.67,59.55c2.16,13.75 4.92,27.41 7.45,41.52z" fill="#3f9097" id="svg_5" opacity="1" stroke="#3f9097" transform="matrix(1 0 0 1 0 0)"/>
  <path d="m387.05,105.6c-1.76,-0.6 -3.84,-1.22 -5.31,-2.53c-11.52,-10.29 -24.38,-18.42 -39.21,-24.65c-2.25,-1.34 -3.85,-2.6 -5.67,-3.28c-15.54,-5.8 -31.02,-11.78 -46.72,-17.14c-12.45,-4.25 -25.37,-6.83 -38.63,-6.1c-10.22,0.56 -20.41,1.7 -30.46,2.29c7.65,-2.57 15.15,-4.82 22.62,-7.15c1.47,-0.46 2.84,-1.22 4.25,-1.85c5.08,-0.06 10.16,-0.12 16.07,0.04c9.5,1.5 18.18,2.77 26.85,4.04c0.54,0.24 1.08,0.49 2.21,1c12.18,4.65 23.75,9.06 35.36,13.38c1.81,0.67 3.79,0.87 5.7,1.29c0,0 -0.07,0 -0.02,0.33c2.04,1.11 4.02,1.89 6,2.66c0,0 -0.06,0.03 0.01,0.34c1.72,1.1 3.37,1.89 5.02,2.67c0,0 -0.1,0.06 0.07,0.22c0.47,0.41 0.78,0.64 1.09,0.88c0,0 0.23,-0.06 0.5,0.32c1.29,0.78 2.32,1.18 3.34,1.58c0,0 -0.1,0.01 -0.01,0.3c1.06,0.76 2.04,1.24 3.02,1.71c0,0 -0.1,0.06 0.06,0.22c0.47,0.39 0.77,0.63 1.08,0.87c0,0 0.27,-0.06 0.58,0.21c0.63,0.43 0.95,0.59 1.27,0.76c0,0 -0.12,0.02 0.04,0.16c0.42,0.38 0.67,0.62 0.93,0.86c0,0 -0.12,0 0.06,0.14c0.42,0.38 0.68,0.62 0.94,0.86c0,0 -0.12,0.01 0.08,0.12c0.45,0.35 0.7,0.6 0.96,0.84c0,0 0.37,0.01 0.71,0.39c1.32,0.77 2.3,1.17 3.28,1.57c0,0 -0.09,0 -0.01,0.29c1.06,0.76 2.03,1.23 3,1.7c0,0 -0.08,0.03 0.03,0.23c0.39,0.41 0.68,0.62 0.96,0.83c0,0 -0.1,0 0.06,0.19c0.49,0.41 0.81,0.63 1.14,0.85c0,0 0.19,-0.06 0.5,0.26c0.73,0.46 1.15,0.61 1.57,0.75c0.26,-0.04 0.45,0.05 0.75,0.7c0.44,0.7 0.71,0.98 0.98,1.27c0,0 -0.1,-0.05 -0.06,0.25c1.45,1.46 2.85,2.62 4.25,3.78c0,0 0.19,-0.07 0.45,0.24c0.62,0.43 0.99,0.55 1.35,0.67c0,0 -0.07,0.01 0.04,0.21c0.4,0.41 0.68,0.62 0.97,0.83c0,0 -0.1,0 0.03,0.19c0.4,0.39 0.68,0.6 0.97,0.81c0,0 -0.08,-0.02 -0.07,0.24c0.37,0.75 0.73,1.23 1.08,1.71c1.97,2.1 3.94,4.2 5.94,6.65z" fill="#3f9097" id="svg_6" opacity="1" stroke="#3f9097"/>
  <path d="m174.01,78.52c-1.14,0.48 -2.28,0.97 -3.99,1.65c-0.84,0.36 -1.08,0.55 -1.3,0.78c0,0 -0.25,-0.07 -0.81,-0.07c-18.93,3.79 -34.78,12.44 -47.83,25.76c-7.83,8 -14.78,16.86 -22.13,25.34c0,0 0.04,0.03 -0.22,0.18c-0.55,0.7 -0.84,1.25 -1.14,1.8c0,0 -0.19,-0.01 -0.54,0.14c-0.57,0.46 -0.8,0.76 -1.03,1.05c-3.87,5.09 -7.74,10.18 -12.13,15.62c-0.96,1 -1.4,1.65 -1.84,2.3c0,0 -0.08,0.38 -0.39,0.7c-0.74,1.01 -1.17,1.69 -1.6,2.38c0,0 -0.06,0.33 -0.41,0.61c-2.65,3.06 -5.29,5.62 -7.19,8.65c-4.02,6.42 -7.65,13.08 -11.48,19.21c0.99,-6.21 2.03,-12.01 3.06,-17.8c1.32,-3.69 2.15,-7.67 4.07,-11.02c2.88,-5.01 6.52,-9.58 10.23,-14.82c0.83,-1.1 1.27,-1.72 1.72,-2.34c0,0 -0.05,-0.09 0.3,-0.29c0.43,-0.61 0.49,-1.04 0.56,-1.46c0,0 0.02,0.06 0.32,0.09c0.43,-0.35 0.57,-0.72 0.71,-1.1c0,0 0,0.08 0.28,0.07c0.43,-0.36 0.58,-0.71 0.73,-1.07c0,0 0,0.08 0.28,0.08c0.43,-0.35 0.57,-0.71 0.72,-1.07c0,0 0,0.07 0.27,0.06c0.43,-0.36 0.58,-0.72 0.73,-1.07c0,0 0,0.09 0.32,0.04c0.46,-0.49 0.62,-0.94 0.77,-1.38c-0.06,-0.22 0,-0.38 0.71,-0.53c0.73,-0.41 0.97,-0.78 1.2,-1.14c0,0 0,0.08 0.29,0.1c0.42,-0.35 0.55,-0.72 0.68,-1.09c0,0 0.01,0.06 0.32,0.1c0.42,-0.34 0.55,-0.72 0.68,-1.1c0,0 0.04,0.11 0.3,0.26c1.11,-0.56 1.96,-1.26 2.8,-1.96c8.74,-7.97 17.24,-16.21 26.29,-23.82c6.23,-5.24 13.2,-9.6 20.59,-14.4c4.23,-1.39 7.75,-2.63 11.14,-4.18c0.6,-0.28 0.6,-1.87 0.88,-2.85c0,0 0.07,0.07 0.43,0.04c6.8,-2.77 13.29,-5.42 19.66,-8.31c3.55,-1.61 6.87,-2.32 10,0.71c-1.71,1.1 -3.27,1.9 -5.13,2.77c-0.83,0.84 -1.36,1.61 -1.88,2.38z" fill="#3f9097" id="svg_7" opacity="1" stroke="#3f9097"/>
  <path d="m442.98,241.01c-1.32,-6.6 -3.02,-13.15 -3.89,-19.8c-3.76,-28.8 -12.33,-55.82 -29.11,-79.81c-6.82,-9.75 -14.05,-19.21 -21.03,-28.84c-0.55,-0.76 -0.66,-1.84 -0.67,-3.01c2.05,0.74 3.8,1.71 5.55,2.68c0,0 0.17,0.29 0.26,0.79c0.73,0.65 1.37,0.79 2.01,0.93c0,0 -0.07,0.01 -0.07,0.29c0.36,0.43 0.72,0.58 1.08,0.73c0,0 -0.08,0 -0.12,0.32c0.67,0.77 1.39,1.22 2.12,1.67c0,0 -0.08,0.01 -0.08,0.29c0.36,0.42 0.72,0.57 1.08,0.72c0,0 -0.07,0 -0.13,0.32c0.67,0.77 1.4,1.22 2.12,1.67c0,0 -0.07,0 -0.07,0.29c0.35,0.43 0.72,0.57 1.08,0.72c0,0 -0.08,0 -0.08,0.28c0.36,0.43 0.72,0.57 1.08,0.71c0,0 -0.07,0 -0.11,0.3c0.35,0.43 0.73,0.56 1.11,0.7c0,0 -0.07,0 -0.09,0.29c0.36,0.43 0.72,0.57 1.09,0.71c0,0 -0.07,0 -0.1,0.3c0.35,0.43 0.72,0.56 1.1,0.69c0,0 -0.07,0.01 -0.11,0.31c0.33,0.43 0.72,0.57 1.1,0.7c0,0 -0.07,0 -0.08,0.29c0.36,0.43 0.72,0.58 1.08,0.72c0,0 -0.07,0 -0.08,0.29c0.36,0.42 0.72,0.57 1.08,0.71c0,0 -0.07,0.01 -0.19,0.27c-0.11,0.49 -0.09,0.71 -0.02,1.28c1.31,2.47 2.6,4.58 3.83,6.71c5.53,9.57 11.96,18.75 16.34,28.83c5.51,12.69 9.34,26.12 13.92,39.67c0.03,8.5 0.15,16.56 0,24.62c-0.08,3.89 -0.65,7.77 -1,11.66z" fill="#3f9097" id="svg_8" opacity="1" stroke="#3f9097"/>
  <path d="m59.94,210.57c-6.59,27.88 -10.47,55.36 -0.97,82.99c0.32,0.94 0.49,1.93 0.36,3.24c-1.06,0.31 -1.75,0.28 -2.45,0.24c0,0 0.07,-0.01 0.09,-0.25c0.01,-0.42 0.01,-0.61 0,-1.16c-1.38,-2.45 -2.74,-4.52 -4.11,-6.6c0,0 0.08,0.01 0.13,-0.36c-1.27,-4.59 -2.47,-8.87 -3.99,-13.03c-0.51,-1.37 -1.86,-2.42 -2.83,-3.62c-0.35,-0.47 -0.71,-0.95 -0.75,-1.84c0.11,-2.06 -0.08,-3.7 -0.27,-5.34c0,0 -0.16,-0.26 -0.1,-0.89c0.04,-12.48 0.01,-24.34 -0.02,-36.2c0,0 -0.03,-0.38 0.2,-0.79c0.39,-0.93 0.54,-1.46 0.89,-2.3c1.45,-5.55 2.7,-10.79 3.96,-16.03c0,0 -0.1,-0.2 0.17,-0.46c0.46,-0.55 0.64,-0.85 1.1,-1.36c2.58,-4.46 4.89,-8.72 7.32,-12.53c0.59,3.55 1.05,6.66 1.51,9.78c-0.08,2.02 -0.16,4.05 -0.24,6.51z" fill="#3f9097" id="svg_9" opacity="1" stroke="#3f9097"/>
  <path d="m346.34,410.78c1.29,-2.07 2.55,-4.75 4.64,-6.22c17.12,-12.06 33.7,-24.73 48.02,-40.09c4.17,-4.48 7.84,-9.42 11.79,-14.1c1.79,-2.13 3.69,-4.17 5.85,-5.95c-10.06,21.38 -25.24,38.2 -44.73,51.24c-3.38,2.26 -6.59,4.77 -9.88,7.17c-5.12,2.64 -10.23,5.28 -15.69,7.95z" fill="#3f9097" id="svg_10" opacity="1" stroke="#3f9097"/>
  <path d="m443.96,204.3c-4.56,-13.12 -8.39,-26.55 -13.9,-39.24c-4.38,-10.08 -10.81,-19.26 -16.34,-28.83c-1.23,-2.13 -2.52,-4.24 -3.51,-6.74c0.48,-0.43 0.68,-0.5 0.89,-0.56c0,0 -0.07,0.03 -0.01,0.25c0.29,0.48 0.52,0.73 0.76,0.98c22.31,19.25 32.81,44.03 33.77,73.51c-0.82,0.49 -1.24,0.56 -1.66,0.63z" fill="#3f9097" id="svg_11" opacity="1" stroke="#3f9097"/>
  <path d="m443.98,204.73c0.4,-0.5 0.82,-0.57 1.56,-0.62c1.04,5.67 1.75,11.31 2.37,17.72c-0.07,1.9 -0.14,3.05 0,4.18c1.97,16.11 1.49,32.11 -2.36,48.09c-0.37,1.03 -0.49,1.95 -0.61,3.32c-0.01,1.95 -0.01,3.45 -0.02,4.96c0,0 0.1,0.18 -0.22,0.41c-0.78,0.54 -1.24,0.87 -1.9,1.09c-0.78,-0.03 -1.37,0.04 -1.96,-0.33c0.27,-4.52 0.54,-8.6 0.8,-12.67c0.13,-1.68 0.26,-3.35 0.55,-5.62c0.13,-1.15 0.09,-1.72 0.05,-2.28c0.26,-7.02 0.52,-14.03 0.76,-21.51c0.33,-4.35 0.9,-8.23 0.98,-12.12c0.15,-8.06 0.03,-16.12 0,-24.62z" fill="#3f9097" id="svg_12" opacity="1" stroke="#3f9097"/>
  <path d="m362.41,402.89c2.91,-2.46 6.12,-4.97 9.5,-7.23c19.49,-13.04 34.67,-29.86 45.07,-51.31c0.02,-0.36 0.01,-0.35 0.29,-0.47c1.03,-0.45 1.78,-0.78 2.53,-1.11c-2.69,11.19 -8.93,20.52 -15.65,29.57c-7.91,10.67 -18.19,18.7 -29.49,25.42c-3.68,2.19 -7.9,3.49 -12.25,5.13z" fill="#3f9097" id="svg_13" opacity="1" stroke="#3f9097"/>
  <path d="m181.17,73.07c-3.28,-2.73 -6.6,-2.02 -10.15,-0.41c-6.37,2.89 -12.86,5.54 -19.69,8.28c9.58,-4.64 19.51,-9.38 29.56,-13.85c4.38,-1.94 9.01,-3.34 14.08,-4.77c1.05,1.02 1.54,1.82 2.01,2.64c-0.01,0.01 -0.04,0.03 -0.39,0.03c-1.42,0.66 -2.49,1.32 -3.9,2.09c-4.06,2.07 -7.79,4.03 -11.52,5.99z" fill="#3f9097" id="svg_14" opacity="1" stroke="#3f9097"/>
  <path d="m441.36,271.09c0.02,3.86 -0.25,7.94 -0.67,12.73c-0.29,1.55 -0.43,2.38 -0.63,3.53c-0.14,0.75 -0.19,1.18 -0.43,1.92c-1.22,3.97 -2.4,7.6 -3.23,11.3c-0.47,2.12 -0.39,4.35 -0.56,6.53c-2.74,5.91 -5.47,11.82 -8.54,17.9c-0.06,-1.53 0.06,-3.29 0.51,-4.96c4,-15.02 8.05,-30.02 12.1,-45.03c0.34,-1.25 0.78,-2.47 1.45,-3.92z" fill="#3f9097" id="svg_15" opacity="1" stroke="#3f9097"/>
  <path d="m232.94,448.31c5.23,0.32 10.65,1.27 16.11,1.62c11.45,0.74 22.48,-1.47 33.17,-5.53c1.69,-0.64 3.49,-1 5.66,-1.48c-17.18,9.43 -35.52,11.79 -54.94,5.39z" fill="#3f9097" id="svg_16" opacity="1" stroke="#3f9097"/>
  <path d="m445.28,282.15c-0.35,-1.28 -0.35,-2.78 -0.13,-4.97c0.35,-1.53 0.5,-2.36 0.65,-3.19c3.6,-15.87 4.08,-31.87 2.11,-47.98c-0.14,-1.13 -0.07,-2.28 0.03,-3.76c0.65,2.08 1.52,4.49 1.63,6.92c0.32,6.92 0.65,13.86 0.37,20.77c-0.27,6.94 -1.11,13.88 -1.99,20.78c-0.47,3.77 -1.53,7.47 -2.67,11.43z" fill="#3f9097" id="svg_17" opacity="1" stroke="#3f9097"/>
  <path d="m333.96,64.6c-1.76,-0.08 -3.74,-0.28 -5.55,-0.95c-11.61,-4.32 -23.18,-8.73 -35.06,-13.29c8.23,-0.71 15.36,3.77 22.96,6.46c5.97,2.12 11.68,4.94 17.65,7.78z" fill="#3f9097" id="svg_18" opacity="1" stroke="#3f9097"/>
  <path d="m247.49,45.12c-0.98,0.7 -2.35,1.46 -3.82,1.92c-7.47,2.33 -14.97,4.58 -22.93,7.18c-3.22,1.32 -5.97,2.32 -9.07,3.21c-0.82,-0.23 -1.29,-0.37 -1.76,-0.5c3.05,-1.51 5.97,-3.51 9.19,-4.45c9.25,-2.7 18.64,-4.98 28.39,-7.36z" fill="#3f9097" id="svg_19" opacity="1" stroke="#3f9097"/>
  <path d="m435.97,306.75c0.04,-1.83 -0.04,-4.06 0.43,-6.18c0.83,-3.7 2.01,-7.33 3.4,-11.44c0.36,-1.01 0.35,-1.55 0.33,-2.09c0.13,-0.84 0.27,-1.67 0.56,-2.78c0.74,-0.34 1.33,-0.41 2.12,0.01c0.21,1.27 0.22,2.05 0.23,2.83c-2.31,6.43 -4.62,12.86 -7.07,19.65z" fill="#3f9097" id="svg_20" opacity="1" stroke="#3f9097"/>
  <path d="m205.02,435.37c2.7,0.9 5.56,2.06 8.36,3.36c6.12,2.83 12.22,5.72 18.56,8.86c-5.25,-1.62 -10.88,-3.18 -16.2,-5.48c-3.75,-1.62 -7.07,-4.24 -10.72,-6.74z" fill="#3f9097" id="svg_21" opacity="1" stroke="#3f9097"/>
  <path d="m209.57,57.08c0.81,-0.02 1.28,0.12 1.93,0.61c-4.72,2.65 -9.61,4.95 -14.51,7.25c-0.48,-0.8 -0.97,-1.6 -1.64,-2.62c4.51,-1.84 9.19,-3.47 14.22,-5.24z" fill="#3f9097" id="svg_22" opacity="1" stroke="#3f9097"/>
  <path d="m56.95,297.41c0.63,-0.33 1.32,-0.3 2.35,-0.22c3.18,6.14 6.01,12.24 8.83,18.74c-3.02,-4.22 -6.09,-8.81 -9.01,-13.48c-0.9,-1.44 -1.42,-3.11 -2.17,-5.04z" fill="#3f9097" id="svg_23" opacity="1" stroke="#3f9097"/>
  <path d="m44.66,227.97c0.4,11.64 0.43,23.5 0.42,35.83c-0.72,-1.74 -2.04,-3.97 -1.99,-6.18c0.18,-9.82 0.76,-19.63 1.57,-29.65z" fill="#3f9097" id="svg_24" opacity="1" stroke="#3f9097"/>
  <path d="m58.55,193.84c-2.31,4.25 -4.62,8.51 -7.43,12.97c-0.5,0.21 -0.94,0.22 -0.94,0.22c2.61,-6.16 5.23,-12.33 8.04,-18.82c0.2,-0.33 0.35,-0.23 0.52,0.06c0.05,2.06 -0.07,3.81 -0.19,5.57z" fill="#3f9097" id="svg_25" opacity="1" stroke="#3f9097"/>
  <path d="m290.87,48.85c-8.7,-0.85 -17.38,-2.12 -26.42,-3.53c8.78,-0.76 17.81,-0.48 26.42,3.53z" fill="#3f9097" id="svg_26" opacity="1" stroke="#3f9097"/>
  <path d="m46.11,272.4c1.03,0.82 2.38,1.87 2.89,3.24c1.52,4.16 2.72,8.44 3.99,13.07c-2.35,-5.04 -4.65,-10.48 -6.88,-16.31z" fill="#3f9097" id="svg_27" opacity="1" stroke="#3f9097"/>
  <path d="m49.73,208.84c-0.91,5.03 -2.16,10.27 -3.8,15.83c-0.38,0.31 -0.76,0.32 -0.76,0.32c1.41,-5.31 2.82,-10.62 4.56,-16.15z" fill="#3f9097" id="svg_28" opacity="1" stroke="#3f9097"/>
  <path d="m62.69,166.99c-0.68,5.62 -1.72,11.42 -2.81,17.89c-0.32,1.17 -0.59,1.65 -0.87,2.13c0,0 0.01,0.01 0.01,0.01c-0.4,-6.87 0.16,-13.58 3.67,-20.03z" fill="#3f9097" id="svg_29" opacity="1" stroke="#3f9097"/>
  <path d="m150.57,80.97c0.08,0.94 0.08,2.53 -0.52,2.81c-3.39,1.55 -6.91,2.79 -10.77,4.15c3.39,-2.3 7.16,-4.61 11.29,-6.96z" fill="#3f9097" id="svg_30" opacity="1" stroke="#3f9097"/>
  <path d="m419.9,342.43c-0.85,0.67 -1.6,1 -2.63,1.46c1.8,-3.09 3.87,-6.3 6.26,-9.58c-0.97,2.55 -2.26,5.17 -3.63,8.12z" fill="#3f9097" id="svg_31" opacity="1" stroke="#3f9097"/>
  <path d="m197.01,430.36c2.52,1.15 5.18,2.62 7.9,4.44c-2.54,-1.14 -5.15,-2.63 -7.9,-4.44z" fill="#3f9097" id="svg_32" opacity="1" stroke="#3f9097"/>
  <path d="m52.92,289.41c1.31,1.7 2.67,3.77 3.78,6.22c-0.43,0.39 -0.61,0.39 -0.79,0.4c-0.98,-2.08 -1.95,-4.17 -2.99,-6.62z" fill="#3f9097" id="svg_33" opacity="1" stroke="#3f9097"/>
  <path d="m289.13,442.93c1.87,-1.38 4.13,-2.7 6.79,-4c-1.87,1.36 -4.13,2.71 -6.79,4z" fill="#3f9097" id="svg_34" opacity="1" stroke="#3f9097"/>
  <path d="m393.87,111.87c-1.79,-0.61 -3.54,-1.58 -5.6,-2.68c-0.37,-0.62 -0.43,-1.1 -0.36,-1.93c2.1,1.19 4.05,2.72 5.96,4.61z" fill="#3f9097" id="svg_35" opacity="1" stroke="#3f9097"/>
  <path d="m311.39,431.07c1.75,-1.32 3.86,-2.71 6.35,-4.06c-1.74,1.36 -3.87,2.68 -6.35,4.06z" fill="#3f9097" id="svg_36" opacity="1" stroke="#3f9097"/>
  <path d="m339.96,67.6c-1.85,-0.44 -3.83,-1.22 -5.87,-2.36c1.88,0.43 3.81,1.23 5.87,2.36z" fill="#3f9097" id="svg_37" opacity="1" stroke="#3f9097"/>
  <path d="m376.16,93.71c-1.27,-0.82 -2.67,-1.98 -4.09,-3.49c1.3,0.81 2.63,1.98 4.09,3.49z" fill="#3f9097" id="svg_38" opacity="1" stroke="#3f9097"/>
  <path d="m305.98,432.98c1.47,-0.68 2.95,-1.35 4.78,-1.97c-1.1,1.03 -2.55,2.02 -4.38,2.77c-0.38,-0.42 -0.39,-0.61 -0.4,-0.8z" fill="#3f9097" id="svg_39" opacity="1" stroke="#3f9097"/>
  <path d="m344.99,70.62c-1.52,-0.46 -3.17,-1.25 -4.89,-2.38c1.54,0.45 3.15,1.25 4.89,2.38z" fill="#3f9097" id="svg_40" opacity="1" stroke="#3f9097"/>
  <path d="m45.08,265.27c0.26,1.21 0.45,2.85 0.37,4.62c-0.33,-1.32 -0.38,-2.75 -0.37,-4.62z" fill="#3f9097" id="svg_41" opacity="1" stroke="#3f9097"/>
  <path d="m353,75.64c-0.85,-0.16 -1.83,-0.64 -2.89,-1.45c0.86,0.16 1.81,0.65 2.89,1.45z" fill="#3f9097" id="svg_42" opacity="1" stroke="#3f9097"/>
  <path d="m349.98,73.61c-0.88,-0.07 -1.91,-0.47 -3.11,-1.17c0.87,0.08 1.92,0.46 3.11,1.17z" fill="#3f9097" id="svg_43" opacity="1" stroke="#3f9097"/>
  <path d="m362.99,82.63c-0.85,-0.08 -1.83,-0.48 -2.98,-1.17c0.83,0.08 1.84,0.47 2.98,1.17z" fill="#3f9097" id="svg_44" opacity="1" stroke="#3f9097"/>
  <path d="m443.37,286.96c-0.34,-0.64 -0.35,-1.42 -0.37,-2.59c0.46,-0.71 0.92,-1.04 1.62,-1.51c-0.14,1.22 -0.53,2.58 -1.25,4.1z" fill="#3f9097" id="svg_45" opacity="1" stroke="#3f9097"/>
  <path d="m91.7,126.09c-0.51,0.79 -1.36,1.49 -2.5,1.99c0.53,-0.82 1.35,-1.45 2.5,-1.99z" fill="#3f9097" id="svg_46" opacity="1" stroke="#3f9097"/>
  <path d="m365.99,84.62c-0.85,-0.15 -1.82,-0.62 -2.88,-1.43c0.86,0.15 1.81,0.64 2.88,1.43z" fill="#3f9097" id="svg_47" opacity="1" stroke="#3f9097"/>
  <path d="m297.08,438.93c0.36,-0.5 1.13,-0.93 2.13,-1.19c-0.41,0.54 -1.07,0.9 -2.13,1.19z" fill="#3f9097" id="svg_48" opacity="1" stroke="#3f9097"/>
  <path d="m318.37,427.07c0.13,-0.54 0.6,-1.15 1.36,-1.87c-0.14,0.53 -0.58,1.17 -1.36,1.87z" fill="#3f9097" id="svg_49" opacity="1" stroke="#3f9097"/>
  <path d="m78.78,138.84c-0.17,0.42 -0.61,1.04 -1.32,1.78c0.18,-0.44 0.61,-1.01 1.32,-1.78z" fill="#3f9097" id="svg_50" opacity="1" stroke="#3f9097"/>
  <path d="m399.07,116.6c-0.69,-0.09 -1.41,-0.54 -2.08,-1.35c0.71,0.09 1.37,0.54 2.08,1.35z" fill="#3f9097" id="svg_51" opacity="1" stroke="#3f9097"/>
  <path d="m402.06,119.6c-0.68,-0.09 -1.41,-0.54 -2.08,-1.35c0.72,0.09 1.39,0.54 2.08,1.35z" fill="#3f9097" id="svg_52" opacity="1" stroke="#3f9097"/>
  <path d="m195.01,429.31c0.52,-0.07 1.17,0.15 1.9,0.6c-0.54,0.05 -1.15,-0.13 -1.9,-0.6z" fill="#3f9097" id="svg_53" opacity="1" stroke="#3f9097"/>
  <path d="m395.98,113.64c-0.52,0.17 -1.16,0.03 -1.89,-0.45c0.53,-0.18 1.15,-0.01 1.89,0.45z" fill="#3f9097" id="svg_54" opacity="1" stroke="#3f9097"/>
  <path d="m305.75,433.18c0.24,-0.01 0.25,0.18 0.28,0.66c-0.15,0.57 -0.32,0.85 -0.72,1.19c-0.1,-0.51 0.05,-1.08 0.44,-1.85z" fill="#3f9097" id="svg_55" opacity="1" stroke="#3f9097"/>
  <path d="m381.07,98.63c-0.31,-0.16 -0.67,-0.64 -1.02,-1.43c0.32,0.17 0.65,0.64 1.02,1.43z" fill="#3f9097" id="svg_56" opacity="1" stroke="#3f9097"/>
  <path d="m45.1,225.33c0.07,-0.34 0.45,-0.35 0.63,-0.35c0.04,0.52 -0.11,1.05 -0.42,1.81c-0.19,-0.22 -0.24,-0.68 -0.21,-1.46z" fill="#3f9097" id="svg_57" opacity="1" stroke="#3f9097"/>
  <path d="m368.15,86.77c-0.18,0.05 -0.5,-0.17 -1,-0.63c0.18,-0.04 0.52,0.16 1,0.63z" fill="#3f9097" id="svg_58" opacity="1" stroke="#3f9097"/>
  <path d="m367.03,85.72c-0.21,0.07 -0.5,-0.14 -0.9,-0.58c0.19,-0.06 0.51,0.12 0.9,0.58z" fill="#3f9097" id="svg_59" opacity="1" stroke="#3f9097"/>
  <path d="m346.13,71.77c-0.16,0.03 -0.47,-0.2 -0.97,-0.65c0.15,-0.02 0.49,0.18 0.97,0.65z" fill="#3f9097" id="svg_60" opacity="1" stroke="#3f9097"/>
  <path d="m358.02,79.74c-0.19,0.05 -0.45,-0.19 -0.88,-0.63c0.16,-0.02 0.49,0.17 0.88,0.63z" fill="#3f9097" id="svg_61" opacity="1" stroke="#3f9097"/>
  <path d="m332.88,417.38c-0.1,0.09 -0.28,-0.16 -0.28,-0.16c0,0 0.21,-0.13 0.32,-0.15c0.12,-0.03 0.06,0.23 -0.04,0.31z" fill="#3f9097" id="svg_62" opacity="1" stroke="#3f9097"/>
  <path d="m303.88,435.95c-0.04,-0.33 0.27,-0.6 0.9,-0.89c0.03,0.3 -0.26,0.62 -0.9,0.89z" fill="#3f9097" id="svg_63" opacity="1" stroke="#3f9097"/>
  <path d="m301.93,436.94c0,-0.32 0.38,-0.6 1.11,-0.93c-0.01,0.29 -0.37,0.63 -1.11,0.93z" fill="#3f9097" id="svg_64" opacity="1" stroke="#3f9097"/>
  <path d="m299.92,437.95c0,-0.33 0.37,-0.61 1.1,-0.94c0,0.29 -0.36,0.63 -1.1,0.94z" fill="#3f9097" id="svg_65" opacity="1" stroke="#3f9097"/>
  <path d="m359.03,80.72c-0.16,0.03 -0.41,-0.22 -0.87,-0.63c0.12,0.01 0.45,0.18 0.87,0.63z" fill="#3f9097" id="svg_66" opacity="1" stroke="#3f9097"/>
  <path d="m404.03,121.7c-0.28,0.12 -0.64,-0.02 -1.01,-0.49c0.32,-0.14 0.62,0.04 1.01,0.49z" fill="#3f9097" id="svg_67" opacity="1" stroke="#3f9097"/>
  <path d="m411.02,128.68c-0.13,0.31 -0.33,0.38 -0.86,0.46c-0.34,-0.19 -0.36,-0.41 -0.24,-0.93c0.44,-0.12 0.73,0.05 1.1,0.47z" fill="#3f9097" id="svg_68" opacity="1" stroke="#3f9097"/>
  <path d="m88.67,127.95c0.13,0.31 0,0.69 -0.46,1.03c-0.16,-0.35 0.02,-0.65 0.46,-1.03z" fill="#3f9097" id="svg_69" opacity="1" stroke="#3f9097"/>
  <path d="m410.03,127.7c-0.29,0.13 -0.65,-0.02 -1.01,-0.48c0.32,-0.14 0.62,0.04 1.01,0.48z" fill="#3f9097" id="svg_70" opacity="1" stroke="#3f9097"/>
  <path d="m409.02,126.71c-0.28,0.12 -0.64,-0.03 -0.99,-0.5c0.31,-0.13 0.61,0.05 0.99,0.5z" fill="#3f9097" id="svg_71" opacity="1" stroke="#3f9097"/>
  <path d="m408.04,125.69c-0.32,0.14 -0.71,0 -1.04,-0.46c0.36,-0.16 0.67,0.01 1.04,0.46z" fill="#3f9097" id="svg_72" opacity="1" stroke="#3f9097"/>
  <path d="m407.04,124.69c-0.31,0.13 -0.68,0 -1.03,-0.47c0.34,-0.15 0.65,0.02 1.03,0.47z" fill="#3f9097" id="svg_73" opacity="1" stroke="#3f9097"/>
  <path d="m406.03,123.7c-0.29,0.12 -0.65,-0.02 -1.01,-0.49c0.32,-0.14 0.63,0.04 1.01,0.49z" fill="#3f9097" id="svg_74" opacity="1" stroke="#3f9097"/>
  <path d="m405.04,122.69c-0.31,0.13 -0.69,0 -1.04,-0.47c0.35,-0.15 0.66,0.02 1.04,0.47z" fill="#3f9097" id="svg_75" opacity="1" stroke="#3f9097"/>
  <path d="m87.67,128.95c0.13,0.3 0,0.67 -0.46,1.02c-0.16,-0.33 0.02,-0.64 0.46,-1.02z" fill="#3f9097" id="svg_76" opacity="1" stroke="#3f9097"/>
  <path d="m403.03,120.71c-0.28,0.11 -0.65,-0.03 -1.01,-0.5c0.31,-0.13 0.62,0.05 1.01,0.5z" fill="#3f9097" id="svg_77" opacity="1" stroke="#3f9097"/>
  <path d="m400.03,117.71c-0.28,0.11 -0.64,-0.04 -1,-0.5c0.3,-0.14 0.61,0.05 1,0.5z" fill="#3f9097" id="svg_78" opacity="1" stroke="#3f9097"/>
  <path d="m397.03,114.71c-0.28,0.11 -0.64,-0.04 -1,-0.5c0.3,-0.14 0.61,0.05 1,0.5z" fill="#3f9097" id="svg_79" opacity="1" stroke="#3f9097"/>
  <path d="m356.02,77.71c-0.22,0.13 -0.54,-0.03 -1.06,-0.38c0.19,-0.1 0.57,-0.01 1.06,0.38z" fill="#3f9097" id="svg_80" opacity="1" stroke="#3f9097"/>
  <path d="m388.02,106.71c-0.28,0.12 -0.64,-0.03 -1,-0.49c0.31,-0.14 0.62,0.04 1,0.49z" fill="#3f9097" id="svg_81" opacity="1" stroke="#3f9097"/>
  <path d="m380.03,96.73c-0.22,0.06 -0.5,-0.15 -0.9,-0.59c0.19,-0.05 0.51,0.13 0.9,0.59z" fill="#3f9097" id="svg_82" opacity="1" stroke="#3f9097"/>
  <path d="m379.03,95.72c-0.22,0.07 -0.5,-0.14 -0.9,-0.58c0.19,-0.06 0.51,0.13 0.9,0.58z" fill="#3f9097" id="svg_83" opacity="1" stroke="#3f9097"/>
  <path d="m377.99,94.64c-0.26,0.2 -0.63,0.08 -1.18,-0.27c0.23,-0.17 0.65,-0.11 1.18,0.27z" fill="#3f9097" id="svg_84" opacity="1" stroke="#3f9097"/>
  <path d="m81.7,134.96c0.11,0.28 -0.04,0.63 -0.51,0.99c-0.13,-0.3 0.06,-0.6 0.51,-0.99z" fill="#3f9097" id="svg_85" opacity="1" stroke="#3f9097"/>
  <path d="m370.18,87.74c-0.23,0.17 -0.65,0.02 -1.31,-0.37c0.21,-0.14 0.66,-0.04 1.31,0.37z" fill="#3f9097" id="svg_86" opacity="1" stroke="#3f9097"/>
  <path d="m357.02,78.74c-0.19,0.05 -0.44,-0.19 -0.87,-0.63c0.15,-0.02 0.48,0.17 0.87,0.63z" fill="#3f9097" id="svg_87" opacity="1" stroke="#3f9097"/>
  <path d="m372.02,89.72c-0.19,0.01 -0.46,-0.27 -0.89,-0.8c0.16,0 0.49,0.25 0.89,0.8z" fill="#3f9097" id="svg_88" opacity="1" stroke="#3f9097"/>
  <path d="m50.1,207.34c0.08,-0.31 0.52,-0.32 0.75,-0.32c0.04,0.3 -0.14,0.6 -0.52,1.08c-0.23,-0.03 -0.27,-0.24 -0.23,-0.76z" fill="#3f9097" id="svg_89" opacity="1" stroke="#3f9097"/>
  <path d="m58.57,187.98c0,0 -0.15,-0.1 -0.23,-0.14c-0.2,-0.39 -0.09,-0.62 0.47,-0.78c0.21,-0.04 0.2,-0.05 0.08,0.18c-0.19,0.41 -0.26,0.57 -0.32,0.74z" fill="#3f9097" id="svg_90" opacity="1" stroke="#3f9097"/>
  <path d="m79.6,137.02c0.25,0.29 0.19,0.72 -0.19,1.31c-0.25,-0.28 -0.19,-0.73 0.19,-1.31z" fill="#3f9097" id="svg_91" opacity="1" stroke="#3f9097"/>
  <path d="m80.68,135.95c0.13,0.31 -0.01,0.68 -0.48,1.02c-0.14,-0.34 0.04,-0.64 0.48,-1.02z" fill="#3f9097" id="svg_92" opacity="1" stroke="#3f9097"/>
  <path d="m55.99,296.29c0.1,-0.27 0.28,-0.27 0.72,-0.29c0.27,0.18 0.27,0.37 0.25,0.83c-0.3,0.09 -0.6,-0.1 -0.97,-0.54z" fill="#3f9097" id="svg_93" opacity="1" stroke="#3f9097"/>
  <path d="m82.69,133.96c0.12,0.29 -0.02,0.65 -0.49,1c-0.13,-0.31 0.05,-0.62 0.49,-1z" fill="#3f9097" id="svg_94" opacity="1" stroke="#3f9097"/>
  <path d="m83.69,132.96c0.12,0.27 -0.03,0.63 -0.5,0.99c-0.12,-0.29 0.06,-0.6 0.5,-0.99z" fill="#3f9097" id="svg_95" opacity="1" stroke="#3f9097"/>
  <path d="m84.8,131.73c0.1,0.25 -0.06,0.7 -0.57,1.19c-0.13,-0.29 0.09,-0.64 0.57,-1.19z" fill="#3f9097" id="svg_96" opacity="1" stroke="#3f9097"/>
  <path d="m86.66,129.97c0.07,0.26 -0.17,0.63 -0.76,1.04c-0.09,-0.29 0.18,-0.62 0.76,-1.04z" fill="#3f9097" id="svg_97" opacity="1" stroke="#3f9097"/>
  <path d="m411.9,129.86c-0.29,0.05 -0.52,-0.2 -0.82,-0.71c0.25,-0.03 0.56,0.19 0.82,0.71z" fill="#3f9097" id="svg_98" opacity="1" stroke="#3f9097"/>
  <path d="m354.13,76.76c-0.17,0.04 -0.47,-0.2 -0.97,-0.64c0.15,-0.02 0.49,0.18 0.97,0.64z" fill="#3f9097" id="svg_99" opacity="1" stroke="#3f9097"/>
  <path d="m265.54,396.79c-15.07,1.26 -29.57,-0.73 -43.42,-4.6c-17.84,-4.98 -35.25,-11.81 -50.78,-22.27c-10.65,-7.18 -21.71,-14.08 -31.05,-22.76c-18.43,-17.13 -35.41,-35.72 -42.7,-60.78c-1.71,-5.87 -2.96,-12.07 -3.12,-18.16c-0.43,-15.9 -3.19,-31.79 0.44,-47.73c3.51,-15.43 8.65,-30.19 19.03,-42.2c8.22,-9.52 17.56,-18.19 27.02,-26.53c10.82,-9.55 21.99,-18.77 33.63,-27.28c9.61,-7.04 19.95,-13.15 30.29,-19.1c8.14,-4.67 16.75,-8.54 25.21,-12.63c12.02,-5.81 24.85,-4.98 37.62,-4.3c12.73,0.67 24.02,6.17 35.39,11.16c9.69,4.26 19.61,8.29 28.6,13.77c7.84,4.79 14.72,11.24 21.68,17.36c12.37,10.88 21.34,24.65 29.91,38.41c10.76,17.28 18.16,36.09 17.7,57.06c-0.21,9.97 -0.11,20 -1.22,29.89c-0.97,8.68 -3.75,17.14 -5.13,25.8c-1.99,12.57 -7.32,23.81 -13.36,34.68c-5.4,9.7 -11.13,19.34 -17.86,28.14c-6.11,7.97 -13.19,15.43 -20.87,21.89c-9.81,8.27 -20.89,14.58 -33.3,18.91c-14.18,4.95 -28.53,8.64 -43.71,11.27z" fill="#3f9097" id="svg_100" opacity="1" stroke="#3f9097"/>
  <path d="m196.98,64.96c4.91,-2.32 9.8,-4.62 14.87,-7.18c2.92,-1.24 5.67,-2.24 8.74,-3.26c10.51,-0.92 20.7,-2.06 30.92,-2.62c13.26,-0.73 26.18,1.85 38.63,6.1c15.7,5.36 31.18,11.34 46.72,17.14c1.82,0.68 3.42,1.94 5.32,3.22c-9.87,-0.76 -19.93,-1.8 -29.99,-2.82c-1.98,-0.2 -3.97,-0.47 -5.96,-0.48c-24.82,-0.03 -49.66,-0.5 -74.47,0.14c-18.41,0.47 -36.79,2.38 -55.56,3.28c-0.25,-1.06 -0.13,-1.73 -0.01,-2.41c1.56,-0.8 3.12,-1.6 4.83,-2.7c3.88,-2.26 7.61,-4.22 12.03,-6.29c1.75,-0.77 2.82,-1.43 3.89,-2.09c0,0 0.03,-0.02 0.04,-0.03z" fill="#3f9097" id="svg_101" opacity="1" stroke="#3f9097" transform="matrix(1 0 0 1 0 0)"/>
  <path d="m98.29,131.92c7.01,-8.42 13.96,-17.28 21.79,-25.28c13.05,-13.32 28.9,-21.97 47.71,-25.76c-2.01,1.9 -4.41,3.84 -6.89,5.67c-19.77,14.51 -39.56,28.99 -59.35,43.47c-0.92,0.68 -1.94,1.23 -3.26,1.9z" fill="#3f9097" id="svg_102" opacity="1" stroke="#3f9097"/>
  <path d="m155.05,405.21c-16.45,-7.83 -31.31,-18.02 -44.18,-30.87c-6.76,-6.76 -12.65,-14.38 -18.64,-21.96c1.13,-0.35 1.95,-0.36 2.78,-0.36c0.54,0.52 1.09,1.03 1.95,1.96c0.51,0.65 0.74,0.86 1.01,1.03c1.97,2.05 3.95,4.1 6.17,6.7c0.52,0.76 0.79,0.98 1.07,1.2c0.45,0.27 0.9,0.53 1.7,1.14c0.57,0.58 0.81,0.78 1.08,0.95c0,0 0.01,0 0.08,0.34c5.39,4.75 10.69,9.17 16,13.59c0,0 -0.07,0.07 0.02,0.38c5.11,4.06 10.11,7.82 15.12,11.58c0,0 0.4,0.03 0.68,0.4c2.21,1.49 4.13,2.61 6.06,3.73c0.21,0.23 0.44,0.45 0.94,1.14c1.61,1.57 2.97,2.65 4.33,3.73c0,0 0.38,0.02 0.67,0.35c0.92,0.79 1.54,1.26 2.16,1.73c0.3,0.11 0.56,0.27 0.91,1.06c0.11,1.11 0.1,1.65 0.09,2.18z" fill="#3f9097" id="svg_103" opacity="1" stroke="#3f9097"/>
  <path d="m58.74,188.27c-0.11,-0.46 -0.04,-0.62 0.15,-1.02c0.4,-0.72 0.67,-1.2 1.03,-1.94c3.89,-6.82 7.52,-13.48 11.54,-19.9c1.9,-3.03 4.54,-5.59 7.17,-8.48c-2.09,5.3 -4.82,10.6 -6.87,16.16c-3.58,9.72 -6.75,19.6 -10.11,29.4c-0.16,0.45 -0.57,0.8 -1.16,1.38c-0.77,-2.93 -1.23,-6.04 -1.82,-9.59c0,-2.2 0.12,-3.95 0.07,-6.01z" fill="#3f9097" id="svg_104" opacity="1" stroke="#3f9097"/>
  <path d="m155.27,405.44c-0.21,-0.76 -0.2,-1.3 -0.16,-2.24c6.2,3.53 12.37,7.46 18.7,11.7c-6,-2.87 -12.15,-6.05 -18.54,-9.46z" fill="#3f9097" id="svg_105" opacity="1" stroke="#3f9097"/>
  <path d="m123.98,378.61c-5.22,-4.1 -10.52,-8.52 -15.91,-13.27c5.22,4.09 10.52,8.52 15.91,13.27z" fill="#3f9097" id="svg_106" opacity="1" stroke="#3f9097"/>
  <path d="m139.09,390.57c-4.89,-3.44 -9.89,-7.2 -14.96,-11.3c4.9,3.43 9.87,7.21 14.96,11.3z" fill="#3f9097" id="svg_107" opacity="1" stroke="#3f9097"/>
  <path d="m87.61,346.17c-1.84,-2.81 -3.69,-5.63 -5.59,-8.79c2.33,2.35 4.71,5.05 6.75,8.19c-0.62,0.49 -0.89,0.55 -1.16,0.6z" fill="#3f9097" id="svg_108" opacity="1" stroke="#3f9097"/>
  <path d="m94.93,351.69c-0.75,0.33 -1.57,0.34 -2.81,0.36c-0.64,-0.13 -0.83,-0.3 -1.06,-1.11c-0.03,-1.43 0.01,-2.28 0.05,-3.12c1.25,1.18 2.5,2.36 3.82,3.87z" fill="#3f9097" id="svg_109" opacity="1" stroke="#3f9097"/>
  <path d="m91,347.56c0.07,1.1 0.03,1.95 -0.03,3.21c-1.05,-1.04 -2.07,-2.5 -3.23,-4.28c0.14,-0.37 0.41,-0.43 1.09,-0.57c0.96,0.4 1.51,0.89 2.17,1.64z" fill="#3f9097" id="svg_110" opacity="1" stroke="#3f9097"/>
  <path d="m145.77,394.74c-1.75,-0.84 -3.67,-1.96 -5.69,-3.41c1.78,0.82 3.65,1.98 5.69,3.41z" fill="#3f9097" id="svg_111" opacity="1" stroke="#3f9097"/>
  <path d="m151.1,399.57c-1.24,-0.76 -2.6,-1.84 -4.03,-3.26c1.25,0.76 2.58,1.85 4.03,3.26z" fill="#3f9097" id="svg_112" opacity="1" stroke="#3f9097" transform="matrix(1 0 0 1 0 0)"/>
  <path d="m175.89,76.14c0.18,0.61 0.06,1.28 -0.14,2.3c-0.45,0.31 -0.83,0.28 -1.47,0.17c0.25,-0.86 0.78,-1.63 1.61,-2.47z" fill="#3f9097" id="svg_113" opacity="1" stroke="#3f9097"/>
  <path d="m79.35,156.01c0.14,-0.55 0.57,-1.23 1.29,-2.05c-0.15,0.55 -0.58,1.23 -1.29,2.05z" fill="#3f9097" id="svg_114" opacity="1" stroke="#3f9097"/>
  <path d="m81.33,152.95c0.16,-0.53 0.6,-1.18 1.33,-1.94c-0.16,0.54 -0.6,1.18 -1.33,1.94z" fill="#3f9097" id="svg_115" opacity="1" stroke="#3f9097"/>
  <path d="m442.05,263.13c0.23,0.41 0.27,0.98 0.15,1.71c-0.22,-0.41 -0.28,-0.98 -0.15,-1.71z" fill="#3f9097" id="svg_116" opacity="1" stroke="#3f9097"/>
  <path d="m153.93,401.7c-0.5,-0.2 -1.12,-0.67 -1.85,-1.43c0.51,0.19 1.12,0.67 1.85,1.43z" fill="#3f9097" id="svg_117" opacity="1" stroke="#3f9097"/>
  <path d="m96.86,133.79c0.03,-0.38 0.32,-0.93 0.87,-1.65c-0.03,0.37 -0.31,0.92 -0.87,1.65z" fill="#3f9097" id="svg_118" opacity="1" stroke="#3f9097"/>
  <path d="m81.93,336.75c-0.24,-0.19 -0.53,-0.63 -0.82,-1.34c0.25,0.17 0.51,0.62 0.82,1.34z" fill="#3f9097" id="svg_119" opacity="1" stroke="#3f9097"/>
  <path d="m105.05,362.7c-0.12,-0.01 -0.39,-0.23 -0.82,-0.68c0.12,0.01 0.39,0.24 0.82,0.68z" fill="#3f9097" id="svg_120" opacity="1" stroke="#3f9097"/>
  <path d="m97.83,354.82c-0.13,0.02 -0.36,-0.19 -0.7,-0.62c0.13,-0.02 0.37,0.18 0.7,0.62z" fill="#3f9097" id="svg_121" opacity="1" stroke="#3f9097"/>
  <path d="m107.85,364.81c-0.13,0.02 -0.37,-0.18 -0.72,-0.61c0.13,-0.03 0.38,0.17 0.72,0.61z" fill="#3f9097" id="svg_122" opacity="1" stroke="#3f9097"/>
  <path d="m168.93,80.86c0.01,-0.14 0.25,-0.33 0.74,-0.58c0.01,0.14 -0.24,0.34 -0.74,0.58z" fill="#3f9097" id="svg_123" opacity="1" stroke="#3f9097"/>
  <path d="m95.23,134.98c0.02,-0.12 0.25,-0.42 0.73,-0.86c0,0.14 -0.26,0.41 -0.73,0.86z" fill="#3f9097" id="svg_124" opacity="1" stroke="#3f9097"/>
  <path d="m445.55,274.1c0.1,0.72 -0.05,1.55 -0.4,2.63c-0.09,-0.68 0.03,-1.6 0.4,-2.63z" fill="#3f9097" id="svg_125" opacity="1" stroke="#3f9097"/>
  <path d="m196.59,64.99c-0.72,0.66 -1.79,1.32 -3.22,1.98c0.73,-0.66 1.8,-1.32 3.22,-1.98z" fill="#3f9097" id="svg_126" opacity="1" stroke="#3f9097"/>
  <path d="m440.06,287.35c0.09,0.23 0.1,0.77 -0.06,1.46c-0.13,-0.28 -0.08,-0.71 0.06,-1.46z" fill="#3f9097" id="svg_127" opacity="1" stroke="#3f9097"/>
 </g>
</svg>