<svg xmlns="http://www.w3.org/2000/svg" width="1920" height="475" fill="none"><path fill="#EFEAD5" d="M1910.3 129c-3.9.1-33.6 2-47.3 17.8a27 27 0 0 0-6.7 21 32.5 32.5 0 0 0 3.6 12.9c-15.7 6.8-30.7 18.5-33.6 30.3-1.6 6.6.7 12.8 6.8 18a49 49 0 0 0 34 11.8c-.3 4.8.4 9.7 2.2 14.2a30.9 30.9 0 0 0 8.2 11.7 30.4 30.4 0 0 1 6.6 8 52.6 52.6 0 0 0-14-.2c-2.9.4-12.5 1.8-13.2 6.2-.4 2 1.2 3.9 4.6 5.6 10 5 20.7 4.4 24.7-1.5a9 9 0 0 0 1.4-3.5 9 9 0 0 0-.2-3.7c4.4 1.2 7.8 3.2 9 6.2 2 4.5 2.3 12 1 22.5a128 128 0 0 1-23.1 59 181.3 181.3 0 0 1-3.8 5c-12.2-15.8-31.7-41.3-35-50.9l-2.3-7.3c-4.3-14-12.4-40-32.2-73.6-16.3-23.1-34-35-54.3-36.4-16.6-1-31.5 5-45.4 11.5-24.3 11.1-33.5 20-37.7 36.8a505.6 505.6 0 0 1-2 7.6 979 979 0 0 0-6.4 25 90.3 90.3 0 0 1-13-7c-.8-.7-7.4-8 6.7-24.3 3.8-4.5 5-8.6 3.7-12.2-.8-2.2-2.6-4-4.9-5.6l1.2-3.3a36.9 36.9 0 0 1 2-5.7l.2-.3a13.3 13.3 0 0 1 4.2-5c7.1-5.2 12-13 14-22.4a52 52 0 0 0-10.4-47 45.5 45.5 0 0 0-4.3-4.4 41.8 41.8 0 0 0-21.9-13.2 51.3 51.3 0 0 0-6-1c-10-1.7-20.4-.7-31 3.1-3.4.9-5.6.8-6.7-.3a63 63 0 0 0-19.2-16 37.7 37.7 0 0 0-5.8-2.4 72.7 72.7 0 0 0-35.2-5 40.6 40.6 0 0 0-30 17.8 46 46 0 0 0-3.6 5.5 47.3 47.3 0 0 0-5.6 18.8l-4 5.2c-16.7 22.4-18.2 40.3-4.6 54.5a24.1 24.1 0 0 0 3.4 3.5 31.2 31.2 0 0 0 10 5.3 76.1 76.1 0 0 0 19.3 1.7h5.5l3.7 1.4 1.2.5a100.2 100.2 0 0 0 20.9 5.8c2.4.4 4.8.6 7 .8h.2a244 244 0 0 0 22-1.7 55.3 55.3 0 0 0 14-2.6c2.5.3 5 .4 7.4.2h1.7l4-.2a96.6 96.6 0 0 1 18 .4 73 73 0 0 1 25.8 6.8c-7.8 17.3-27.3 23.2-43.9 26.5-4.6 1-9.4.9-14 0a37.1 37.1 0 0 1-6.3-2c-11.7-5.8-24.5-13-27-14.4-2-1.1-3.8-2.4-5.7-3.7-6-4-12.1-8.2-19.2-5.9a13.7 13.7 0 0 0-5.1 3 14 14 0 0 0-3.4 4.7 15.1 15.1 0 0 0-1.3 5.7c0 2 .3 4 1 5.8a9 9 0 0 0-1.9 1.4c-2.6 2.5-3.5 6.6-2.5 11.2l1.3 5.4c1.2 4.4.8 9-1.1 13.2-27.3-6.6-102.4-9-109.8-9.3a130.8 130.8 0 0 0-21.4-27 68 68 0 0 0-46.2-13.3 59.4 59.4 0 0 0-42.6 23 60 60 0 0 0-11.6 23 5 5 0 0 0 .9 4.3 4.8 4.8 0 0 0 1.8 1.3 4.8 4.8 0 0 0 2.1.5l9.9-.3a7.7 7.7 0 0 0 4-1.2 7.9 7.9 0 0 0 2.7-3.2 55.9 55.9 0 0 1 2.5-4.4 50.4 50.4 0 0 1 5.2-7.2 47.4 47.4 0 0 1 5.4-5.4c1-.9 2-1.7 3.1-2.4a28.1 28.1 0 0 1 3-2.1 27 27 0 0 1 3-1.6 54 54 0 0 1 28.4-.6 27.5 27.5 0 0 1 6.2 1.8c8.6 3.8 16 10 21 18 5.2 8.3 6.4 8.3 6.9 8.3h1c24.4 1.2 105 5 115.8 6.5 3 .4 5.8-1 8.4-4.6l1.2-1.8c17.8 4.8 30 19.4 39 30 3.2 4 6 7.2 8.5 9.5l.2.2 3.6 2.3a1 1 0 0 0 1 0l6-3.1.7-.7.2-.9c0-1.5-1.8-3.1-5.8-5.3-4.5-2.4-8.3-6.6-7.8-8.3.4-1.2 3.3-2.1 10.6-1.2l11.8 1.3c12.9 1.3 27.4 2.8 29.8 6.2l.3.6v.7c-1.1 4.5-30.1 18.7-48.2 26.5l-1.8.2c-21.8 2.6-48.8 5.2-77.4 8l-32.5 3c-117.2 11.4-308-10.8-313.6-11.4a1.5 1.5 0 0 0-1.5.3c-.7.8-1.1 2.2 2.8 9.8l.3.3.4.2a1174.8 1174.8 0 0 0 166.2 19.1c44.6 2 89.1 1.4 133.6-1.7 67.1-4.8 111.2-14 119.8-16a286 286 0 0 1-11.6 47.2c-24.3 42-56.1 45.5-89.8 49.2-35.8 3.8-166 7.5-229.1-1.4-60.2-8.5-68.2-20.5-80.4-38.6l-.5-.8c-10.4-15.5-15.6-46.8-17-56l-.2-2.2a1 1 0 0 0-.2-.5 1 1 0 0 0-.4-.3h-.1l-1.1-.5c-18.1-8-46-21.8-47-26.3a2.2 2.2 0 0 1 0-1l.3-.8c3.2-4.6 21.3-6.8 35.8-8.5 9.8-1.2 11.3.8 11.5 1.5.6 1.8-2.7 5.5-6.8 7.7-2.7 1.5-4 3-4 4.8 0 2.4 2.6 4 2.9 4l7.1 3.8.8-2.6a68.4 68.4 0 0 1 41.6-42.6c33.1-11 95.8-12.6 96.4-12.6h2.4l-1.6-1.8c-8.8-9.4-12.2-18-10.2-25.3 4.5-16.3 34.7-25 56.8-31.6 6.1-1.8 12-3.5 16.5-5.1 6.6-2.4 9.5-4.6 9.6-7.2.1-4.2-7.3-7.5-17.5-12.1-9.8-4.4-22-9.8-29.6-17.2-3.6-3.5-4-7.5-1.2-12a26.7 26.7 0 0 1 5.3-6c16.6 4.2 32.6 6.2 40.6 1.8a9.6 9.6 0 0 0 3.3-2.8 9.7 9.7 0 0 0 1.8-4.1c1-6-2-8.6-4.9-9.8-9.4-3.7-29.7 3.2-41.3 12.6a434 434 0 0 1-50.8-17h-.1a24.6 24.6 0 0 1-12-7.2c13.5-19.7 11.4-24 10.7-25.4-.6-1.4-2-2-3.6-1.6-4.5.9-11.7 9-12.1 17.9a15 15 0 0 0 2.4 9.1c-3.8 5.5-8.1 11.1-12 16.1a49.2 49.2 0 0 0-16-.7c3-8 15.2-42.7 17.5-67.6a109 109 0 0 0-4.9-37.1c1.2-10.4.2-21-4.1-27.4-3.5-5.3-6-7.4-8-7-.4.2-.8.4-1.2.8-.3.4-.5.9-.6 1.4v.3l.1.3a233.8 233.8 0 0 1 11.7 32 67.6 67.6 0 0 1-4 16.3c-2.8 7.3-17.9 19-31.1 29.3-8.7 6.7-17 13-21.6 18a130.2 130.2 0 0 0-21.8 29c-2.2 4.7 1 8 3.1 9.2 1.7 1.7 19.8 20.3 14.5 45.6a48.6 48.6 0 0 1-43.8 38.1c-22.5 1.4-40.1-14.5-47.5-31-6.1-13.4-8.7-35 4.3-51.3a45.6 45.6 0 0 1 27.8-16c-1.5 7 .8 10 3 11.5 10.3 6.5 24.7 5.8 30.2 1 2.2-2 2.8-4.5 1.7-7.1-2.3-5.2-15.7-9-29.3-8.2-.7 0-1.7 0-2.8.2a59.8 59.8 0 0 1 11.4-19c7.4 2.8 13.7 3.3 16.8 1 1.4-.9 3.3-3.3.9-8.4-1.2-2.5-3.2-3.7-5.9-3.4-3.6.4-8 3.7-12.3 8.3a68.4 68.4 0 0 1-22.5-15.5c-8.7-9-10.2-14.7-10-17.9.1-1 .4-1.8.8-2.6a6.4 6.4 0 0 1 1.9-2.1 7 7 0 0 0 2.7-4.4 3.6 3.6 0 0 0 0-1.8 3.6 3.6 0 0 0-.8-1.6c-2-2.1-7.2-1.3-13.7-.3-3.4.5-7 1-10.4 1.2-3 .2-6-.5-8.5-2a12 12 0 0 0-1.1-8.6c-1.2-2.1-2.5-3.1-3.7-3-.5 0-1.5.3-2.2 1.8-.8 2-.5 5.7 1.2 7.7 1 1.2 2.1 2.2 3.4 3.1-2.8 10-14.6 22-22 26.4a22.1 22.1 0 0 1-7.8 2.6 32.3 32.3 0 0 0-1.7-13.4 15.7 15.7 0 0 0-4.5-6.7 15.4 15.4 0 0 0-7.1-3.5 15.5 15.5 0 0 0-8 .4 15.6 15.6 0 0 0-6.8 4.4s-5 5.2 0 13.2c3.6 6 15.4 9.1 25.8 8.2-.7 5.2-1.7 10.3-3 15.3l-1.6 6.8c-4 16.9-5.6 23.8-17.2 44.8a16.2 16.2 0 0 1-1.3 2c-5-4.2-11-7.3-14.5-9l-1.2-.6a48.2 48.2 0 0 1-4.7-2.4c-22.7-13.5-28.7-19.6-34-29.8-5.7-10.7-6.2-17.5-7-26.1v-.3c-.6-7.7 2.2-17.4 9.8-22a38 38 0 0 1 8.4-3l2.9-1c4.4-1.3 12.8-2.4 20-3.2 13.2-1.6 16-2.1 16.2-3.9.1-1.3-1.4-1.8-2-2-1.6-.6-2.4-1.3-2.7-2.4-.9-3.5 5-10 8.9-14.4 3.3-3.6 5-5.5 5-7a2.3 2.3 0 0 0-1-2c-2-1.5-8-1.6-13.5-1a76.5 76.5 0 0 0 2-5.6c.8-2.3 3.2-9.8 2.3-12.3a2.8 2.8 0 0 0-1.5-1.7c-2.2-1-5.8.5-9.9 2.3l-1.6.6a25.8 25.8 0 0 0-8.3 5.5c-2.9-.3-6 1.2-8.2 4a19.3 19.3 0 0 0-3 5.9 456.8 456.8 0 0 0-1.7-3.3l-2.4-5c-2.3-4.9-6.1-11.6-12.2-12.5a2.1 2.1 0 0 0-2 .7 2.2 2.2 0 0 0-.4 2 46.8 46.8 0 0 1 1.3 16.8 33.8 33.8 0 0 0-4.1-.8 28.5 28.5 0 0 0-15.5 1.7C914 35.2 905 39.9 904 45.7a2.7 2.7 0 0 0 1 2.6 2.7 2.7 0 0 0 2.8.3c13.1-6.6 17.3-1.5 21 3.8-9.5 4.3-18 12.5-17 21.3l.1.6.5.3c2.2 1 6.3-1.3 12.4-5 2.3-1.5 4.6-3 5.6-3.2a3.6 3.6 0 0 1 1.9 0 3.6 3.6 0 0 1 1.6 1 2.7 2.7 0 0 1 .4 3 4.3 4.3 0 0 1-2.1 2.3l-1.1.5a62 62 0 0 0-18.6 11.9 22.6 22.6 0 0 0-5.4 8.5 22.9 22.9 0 0 0-1.3 10c1.2 11.5 2.8 16.6 17.5 32.6a146.8 146.8 0 0 0 51.2 36.4 18.3 18.3 0 0 0 10.4.5 18.5 18.5 0 0 0 9-5.3c3.4 3.3 5.9 7 5.9 11 0 3.6-3.6 8-9.7 12-10.1-3-20.6-4.2-26-1.6a6 6 0 0 0-3.6 5c-.1 2.2.7 4 2.5 5.1 5 3.2 16.4 0 25.2-4.9a47.9 47.9 0 0 0 2.2-1.3c6.6 2 13 4.9 17.8 8.2 3.3 2.3 7.1 5.9 6.7 9.7-.3 3.1-1.5 5.3-3.6 6.6-6.2 3.8-18-.8-18.2-.9l-2.4-1 7.3 16c-16.7-5.5-38-11.1-55.4-13.4-34-4.3-46.3-3.2-46.8-3.1h-.4c-1.6 1-.7 3.3-.4 4 2 5.2 6.8 8.4 14 9.3 18.3 2.5 63.4 9 85.8 15.7a6 6 0 0 0 3.4.1 6 6 0 0 0 3-1.8c1.6-1.8 2-4.5.9-7l-.2-.4c11.7 4 20.2 7.6 22.1 9.1 2.3 1.8 2.6 3 2.6 3.5a1.2 1.2 0 0 1-.5 1h-.2l-.1.3s-3.2 5.2-7.9 11.5c-4.5 6-9.6 12.8-9.1 28.8v2.3c.3 8.7 2.7 17 5 25 2 6.6 4 13.5 4.8 20.5a345.3 345.3 0 0 1 2 18.4l.2 1 5.2-.7a51.8 51.8 0 0 0 24-13.8 22 22 0 0 0 2.7-4.5c5.9-10.2 2.5-21.8-.1-28l-1.2-2.1a26.1 26.1 0 0 0-10.2-10 15 15 0 0 0-2.5-1.3l-2-.8h-.1a45.6 45.6 0 0 0-13-1.9 1.9 1.9 0 0 1-.8-.2 1.8 1.8 0 0 1-.7-.5c-1.2-1.6-1.7-5.5-1.2-10a21 21 0 0 1 5-7.9c2.9 0 24.1 4.8 30.4 10.2l1.7 1.2a52.5 52.5 0 0 1 5.3 4.8 46.4 46.4 0 0 1 8.6 44 62 62 0 0 1-3 7.4 69.5 69.5 0 0 1-3.7 6.9c-1.2 2-2.7 3.8-4.2 5.6a41.3 41.3 0 0 1-5.2 4.8 71.8 71.8 0 0 1-5.1 3.8 119.6 119.6 0 0 1-15.3 8.4l-4.1 1.8a68.9 68.9 0 0 1-3.1 1.2c-7.7 2.6-11.5 4-15.6 13.2-3.6 8.2-18.5 26.3-26.8 35.8l-2.9 3.3c-8 9-21.2 24.3-26 28.6-4.6 4.2-26.6 5.1-58.5-1.4-30.6-6.2-44-18.8-45.5-22.6-1.3-3.7-5.5-16-9.7-29.6a51.8 51.8 0 0 1 9.2-2.9c1.2 3.7 3 8.3 5.4 14.4a52.4 52.4 0 0 0 12.6 18.8 51.7 51.7 0 0 0 19.4 11.6 130.4 130.4 0 0 0 51 6.4c9-.7 13.6-2.7 14-6.3.5-5.4-10.4-11.5-16.4-13.2a459 459 0 0 0-38.1-8.1 10.5 10.5 0 0 0-2-3.3 508 508 0 0 0-11.6-12.5 32 32 0 0 0-12.3-8.3c-4.9-2-11.9-3.4-20.6-1.9l-.3-.9c-.7-2-1.2-3.8-1.6-5.7a139 139 0 0 1-4.5-28.8 99.8 99.8 0 0 1 0-9.6c.4-18 9-33.6 17.5-48.6 4.5-8.1 9.2-16.5 12.5-25.2a397.7 397.7 0 0 0 2.7-7c2.6-7 4.8-13.5 6.5-19.3a94 94 0 0 1 6.7-19l.6-.9-.9-.6c-4.4-2.7-13-9.4-11.6-12.8.7-1.9.8-3.2.3-4-1.2-2.2-4.7-.8-7.2.3l-.6.4c-5.8 2.7-6 4-2.3 14.2 3.7 10.4 4.9 16.5 2 24.8a144 144 0 0 1-22.7 40.6c-12.8 15.3-28.1 41.7-13.8 94.4a668.5 668.5 0 0 0 3.5 11.8 98.7 98.7 0 0 0-1.6.8c-8.2 4-15.3 9-12.4 19.7 2 7 1.7 14-1 18.3a10.2 10.2 0 0 1-2.9 3.3 10 10 0 0 1-4 1.7 10.7 10.7 0 0 1-6.6-.8c-10.6-6.5-15.2-20-19.3-32l-3.2-9-.8-2.3-.6-1.9a122.3 122.3 0 0 0-1.4-4.3 84 84 0 0 0-2.2-5.6 27.8 27.8 0 0 0-26.2-20.4c-25.3 0-41.8 22.3-47.7 31.8a44.5 44.5 0 0 0-1.8 4.2l-1 2.6c-4.9-2.1-9.5-2-13.3.3-16 9.7-15.6 40.1-14.2 56a730.4 730.4 0 0 0-10.3-4.8c-15.7-7-37.3-16.7-38.9-22.7a1.8 1.8 0 0 1 .3-1.6c4-5.6 5.3-9.5 4-12.1-2-3.8-8.2-3.7-14.2-3.7-4.2 0-8.8 0-9.8-1.5-.3-.4-.2-1.2.3-2.1 3-6.7 3.8-22.6-2.4-34-5-9.3-12.3-19-35-21.8l.5-6.8c2 .4 4.3.6 6.4.5 2.7-.2 6-.1 9.3 0h9.1c9.5 19.1 33.5 23.3 48 25.8 14.6 2.5 29.8 5.1 43.7-4.6a43 43 0 0 0 18.5-37.1 34.3 34.3 0 0 0-4-13.6c2.3.1 4.4-.4 6-1.8a108 108 0 0 1 34.8-13.2l.1.4c2.6 7.3 12.3 14.3 18 13 1.7-.5 4.4-2 3.7-7.6a8.9 8.9 0 0 0-6.1-7.6 29.9 29.9 0 0 0-14.1-.6c-.5-4 1.8-7.3 6.8-9.8 12.2-5.9 29.9-3.1 43.2.4 1 4.4 3.4 7.7 8 9a3.9 3.9 0 0 0 3-.4 4 4 0 0 0 1.2-1l.7-1.4a4.1 4.1 0 0 0-.3-3.2 4 4 0 0 0-1-1.3 4 4 0 0 0-1.4-.7 164.3 164.3 0 0 0-8.4-2.7c-1.4-7 .5-16.6 1.8-23.9l.3-1.3c2.2.3 4.4.3 6.6 0 11.9-1.6 26.1-10.6 30-31.2 2.2-10.8.7-18.6-4.2-22.9-5.9-5-14.5-3.5-17.3-2.5-8 3-10.8 5.3-16 13.6a37.2 37.2 0 0 0-.5-3.4c-5.5-29.9-29.7-44.4-30-44.6h-.3l-4-.8 3.4-1.2c2.6-1 12-5.6 14-6.8 2.3-1.3 3.8-4.4 4.1-8.4l.1-1.1h-1a23 23 0 0 0-10.2 1.5h-.1a95 95 0 0 1-14.2 6.7 9.8 9.8 0 0 1-1 .1 16.5 16.5 0 0 0 5.5-7.7 224 224 0 0 1 3.1-8.7c1.8-4.6 2.8-7.2 2.2-9.1a1.3 1.3 0 0 0-.4-.7 1.3 1.3 0 0 0-.8-.3c-1 0-1.6 1-3.1 4.2-1.8 3.6-4.8 9.8-8 11.1a21.6 21.6 0 0 0-5.1 2.8 11 11 0 0 1-4 1.9c-2.5.8-3.2.4-3.4.2-.3-.3-.7-1.5 1-6.3 2.7-7.3 3-21.7 1.7-25.4-.2-.5-.6-1.7-1.7-1.7-1.2 0-1.7 1.2-2.8 4.1-.6 1.5-1.3 3.4-2.4 5.6a57.3 57.3 0 0 0-3.3 13.7 54.3 54.3 0 0 1-1.2 5.8l-.3-1.5a29.4 29.4 0 0 0-3.1-8.9 43 43 0 0 1-4-21.2l.2-.3a1 1 0 0 0-.4-1.8 1 1 0 0 0-.8 0 1 1 0 0 0-.3.4l-.2.1-.2.3c-2 2.4-6.6 9-5.4 14.7a80.6 80.6 0 0 1 2.3 19 37 37 0 0 0-9.8-8.2 41.4 41.4 0 0 0-8.4-13.7 58 58 0 0 0-6.4-6 81.2 81.2 0 0 0-4.7-3.5c-5.8-4.6-18-6.2-22.3-6.7 8-15.2 4.3-25.1-.3-30.8-10.4-13-34-15.4-50-10.3-12.5 4-20 12-20.7 22.1-.1.9.6 2.5 1.5 4.4a27.4 27.4 0 0 0-4.2 1.9c-6.4 3.5-9 9.1-7.9 16.1v.1c1.8 6.3 7 9.8 13 13.9l6.5 4.7 2.5 1.8c0 1.4-.2 5.2-.1 10 0 3 .2 6.5.4 9.6l1 18.7c-12.8-.2-22.5 2.7-29 8.6a67.8 67.8 0 0 0-29.6-35.4c-14.6-7.6-33-8-47.6-8.1-7.6-.2-14.2-.3-18.1-1.5-15-4.5-23.7-11-32-23.9-8.2-13-8.1-13.7-5.2-18.1 3.8-5.8 14-21.2 29.5-20.2 16 1 32.7 19.2 49.8 54 2.4 5.2 6.5 5.7 9.7 4.3 3-1.4 6-4.9 4.8-7.7-11.8-29.4-32.3-65-62.3-67.4-24.6-2-43 24-47 30.3l-22-28.6-36 32.3 1.2.7c.4.3 9.7 5.4 17.8 7.9 8.2 10.4 46.6 63.7 47.2 71.2l.1 1.7 4.9-3a109.7 109.7 0 0 1-1.6 31.5c-4.3 21-1.4 43.5 7 54.8 12.7 17 34.6 27 47.8 33l6.4 3c9.7 5 10.3 4.4 10.9 3.8 2-.6 10-3.2 21.3-10a164.6 164.6 0 0 0 46.6-44.7l.2-.4-10-37.8c-.2-1-.8-10.3 5.5-18a137.3 137.3 0 0 1 5.6 18.2l8 33.2c.5 6.2-11.4 23.4-34.2 43.3a110.3 110.3 0 0 1-46 23.8c-3-1.3-29-12.4-42-20a72.3 72.3 0 0 1-33.3-35.6c-2.6-6-4-13.8-3.7-23.3v-1.6l-21.8 8.7c-1.7-2.4-8-10-24.3-16.7a99.8 99.8 0 0 0-4-1.5 68.8 68.8 0 0 0-18.1-5 59 59 0 0 0-4.7-.5h-4.2a32.9 32.9 0 0 1-3.7.4 40.5 40.5 0 0 0-47 1.2h-.1a34.4 34.4 0 0 0-3.2 3.8 20.3 20.3 0 0 0-4.4 10 21.7 21.7 0 0 0 0 5.2 18.6 18.6 0 0 0 1.4 6.5 12.4 12.4 0 0 0-1.2 4c-1.5 13.5 10.3 20 20.8 25.7l2.2 1.2a876.8 876.8 0 0 0-16.9.6A1142.7 1142.7 0 0 0 168.8 294 619 619 0 0 0 94 313l6.7-5.4a6 6 0 0 0 2-3.3 6.1 6.1 0 0 0-.2-3.9 6 6 0 0 0-2.5-2.8 6 6 0 0 0-3.8-.8c-4.6.6-9.3.7-14 .2a7.2 7.2 0 0 1-3.2-1 7.3 7.3 0 0 1-2.3-2.6 7.5 7.5 0 0 1-.2-6.9l21.2-42.7 1.4-2.9a409 409 0 0 0 1.6 17.6v.6l.7.3c.4.1 10.2 3.8 39.8 1 31.4-3 118.5-62.8 119.4-63.4 6.9-4.8 38-16.2 52.2-20.8 5.8-1.8 7.8-5.7 8.4-8.3 4.5.6 10.3.9 17.5.7 17.5-.4 42.3-23.4 45-25.8 1.1-.4 1.2-1.3 1.1-1.5 0-1.1-.1-2.1-16.2-2.9a47.8 47.8 0 0 0-13.5 1.2 91.5 91.5 0 0 0 2.4-4.5c4.7-9.3 8.5-19 8.5-19l1-2.6-2.4 1.2c-.3.2-26.6 13.4-51.5 30a69.3 69.3 0 0 1-47.7 13l-7-.1h-.3c-6.5 0-17.8-2.8-32-6.3-17.1-4.2-38.6-9.5-61.7-12.3-27.8-3.4-56.4 4.3-76.3 11.8a61.5 61.5 0 0 0-3.1-6.4c4-1.5 17.7-6.7 30.2-13.7l.2-.1c1.3-1.1 12.6-10.6 9.8-17.1-2.2-5.2-12.5-6.3-31.5-3.4-15.5 2.4-26.8 6-34.5 10-2.6-6-7-11.9-13.3-15.5-7-4-17.4-2-31.1 5.8A146.6 146.6 0 0 0-1 121v2.6a147 147 0 0 1 16.8-11.4c12.8-7.4 22.9-9.4 29-5.9a31 31 0 0 1 12.5 14.8c-8.9 5-12.5 10.7-12.5 15.3 0 4.4 3.1 7.6 8 8.4 4 .6 7-1.4 8.4-5.5a27.4 27.4 0 0 0-1.3-17.3c7.3-3.9 18.2-7.5 34.1-9.9 23.1-3.5 28.3-.2 29.3 2.1 1.8 4.3-6 12-9.2 14.6-14.6 8.2-30.9 14-31 14l-1.2.4.6 1.1a57.8 57.8 0 0 1 3.6 7.2 208 208 0 0 0-24 11c-1.2.7-30.4 17.6-34.3 35.3-.7 3 .1 5.7 2.4 7.6l1.3 1a19.3 19.3 0 0 0-1.8 3.4c-1.1 2.8-1 5.8.3 9 7 16.3 45.6 31.6 47.2 32.3l1 .3.3-.9a197 197 0 0 0 12.2-37.9c3.6-17 5.8-40-1.8-59.9 19.7-7.5 47.8-15 75.2-11.7 23 2.8 44.4 8 61.5 12.3 14.5 3.6 25.9 6.4 32.7 6.3 2.3 0 4.6 0 7 .2 12.9.4 27.5 1 48.9-13.3a557 557 0 0 1 48.8-28.7c-1.5 3.5-4.2 10-7.4 16.3a106.4 106.4 0 0 1-3.4 6.2c-8.1 2.6-13.4 6.9-13.7 9.8-.1.6 0 2.8 3.2 3.4 3.1.5 7-3.2 11.8-11.3a44.8 44.8 0 0 1 15-1.8c7.9.4 11.5.9 13.2 1.2-4 3.7-27.3 24.5-43 24.8-8 .2-13.4-.2-17.3-.7.2-3.4-1.2-6.9-3.4-8.5a4.4 4.4 0 0 0-4.8-.6l-.1.1-.1.1c-2.4 2.3-3.3 4.4-2.5 6.2.8 2 3.7 3.5 8.6 4.4-.9 3.2-3.3 5.5-7 6.7-14.2 4.6-45.7 16.1-52.7 21-1 .6-88 60.2-118.5 63-25 2.5-35.8 0-38.2-.6-.3-2.3-1.2-10.4-1.8-20.7 15.2-33.6 16.6-56.4 11.1-63.7-1.3-1.7-3-2.5-4.7-2.1a4.9 4.9 0 0 0-2 .9 5 5 0 0 0-1.3 1.6c-7 12.4-6.6 42.2-5.3 63a193.9 193.9 0 0 1-3 6.3l-20.9 42.9a9.6 9.6 0 0 0 .2 8.8 9.3 9.3 0 0 0 3 3.3 9.2 9.2 0 0 0 4.3 1.5c4.7.5 9.6.4 14.3-.2a3.7 3.7 0 0 1 2.5.4 3.8 3.8 0 0 1 1.6 2 4 4 0 0 1 .2 2.4 3.9 3.9 0 0 1-1.3 2.2l-11 9c-29 9.5-47 17.8-47.3 18l-1.3.5.9 1.1c.3.3 26 32.1 43.7 53.2l.2.2 91.8 32 2.5-11.2-67-24.5a74.1 74.1 0 0 1-33.2-24.2L65 336.9l24.6-20a619 619 0 0 1 79.8-20.6 1141 1141 0 0 1 143.1-17.1c7-.4 13.9-.6 20.4-.7a50.5 50.5 0 0 1 4.4 2.9c1.2.8 6.5 6 8.4 8l.2.2 81.8 11.5-14.9 28.8a95 95 0 0 1-33 36.4L322.6 403l-9.5 16.6-114.7 10.2-.1.8c-1 5.5 3.9 11.8 3.9 12l.4.3 116.7-10 .6-.1.2-.5 10-18.8 1.6-3 80.3-52h.3l.1-.3c13.9-27.8 24-49 30-62.8l.4-1-.7-.5c-18.8-12.7-55.3-18.6-108.7-17.6l-5.4-3c-10.3-5.6-21-11.4-19.6-23.5a10 10 0 0 1 .3-1.7 19.2 19.2 0 0 0 6 6.3 14.8 14.8 0 0 0 14.4 1.3 11.1 11.1 0 0 0 3.4-3 11.3 11.3 0 0 0 1.8-4.2c.3-1.4.4-3 .1-4.4a6.7 6.7 0 0 0-.6-2.7 6.6 6.6 0 0 0-1.8-2.2 14 14 0 0 0-10-3 18.4 18.4 0 0 0-5.4 1.3 17.5 17.5 0 0 0-7.8 5.7 16 16 0 0 1-.7-4.3v-.1a19.5 19.5 0 0 1 0-4.7 18.3 18.3 0 0 1 4-9 31.8 31.8 0 0 1 3-3.5c6.4-5.2 16-8 25.4-7.6a35.4 35.4 0 0 1 16.9 5 17 17 0 0 0-10.1 3.2 14 14 0 0 0-3.7 5 14.2 14.2 0 0 0-1 6.2 14.7 14.7 0 0 0 1.7 6.2 14.5 14.5 0 0 0 4.2 4.9 10 10 0 0 0 4.9 1.8 12 12 0 0 0 10-4.6 15 15 0 0 0 3.9-12.8 19 19 0 0 0-1.6-5.3l-.1-.2a25.8 25.8 0 0 0-2.4-2.6 24.2 24.2 0 0 0 1.5-.2h.3l3.6-.1a57.5 57.5 0 0 1 4.5.4 67 67 0 0 1 17.7 5l4 1.5c18.3 7.6 23.7 16.5 23.7 16.5l.5.8 20.5-8.2c0 9.2 1.3 16.8 4 22.6a75 75 0 0 0 34 36.6c14 8.1 42.4 20.2 42.7 20.3l.2.1h.4c.2 0 24.8-4.9 47.2-24.4 21.2-18.5 35.6-37.1 35-45.1v-.2c0-.2-4-15.7-8.1-33.2a138.3 138.3 0 0 0-6-19.4c6.1-6 16-9 29.1-8.6h1.1l-1-21a257.3 257.3 0 0 1-.4-20v-.5l-3.3-2.5a108 108 0 0 0-6.7-4.8c-5.7-3.8-10.5-7-12-12.6-1-6 1.2-10.8 6.7-13.9a25.8 25.8 0 0 1 4.3-1.8 76.4 76.4 0 0 0 17.2 22.2c5.8 4 10.8 4 17.7 0a9 9 0 0 0 4.6-9.2c-.5-6.2-5.4-12.6-9.2-14-7.9-4.6-16.4-3.8-26-2.4a40.3 40.3 0 0 0-3.3.8 12 12 0 0 1-1.5-3.5c.9-12.6 12.4-18.1 19.2-20.3 15.4-5 38-2.6 47.9 9.7 6.1 7.6 5.9 18-.7 29.8l-.8 1.5h1.6c.2 0 16.3 1.3 22.9 6.5a83 83 0 0 1 4.5 3.5 57.2 57.2 0 0 1 6.2 5.7 41 41 0 0 1 7.3 10.9 24.1 24.1 0 0 0-7.3-1.8 25.5 25.5 0 0 0-12.5 2.3 21 21 0 0 0-.6-.7c-2.8-2.8-8.2-3.1-14.9-1-15 4.9-33 20.3-35.9 35.5l-.4 2.2c-4 21-7.5 39.3 22.4 63.4l.2.1 5.6 2.8c6.3 3.2 11 5.5 16 10.1 1 .8 1.9 1.7 2.8 2.7 6.2 5.8 13.8 13.2 27.4 12.8 5.9 0 8.3.6 11.6 1.5 1.5.5 3.3 1 5.6 1.4 13.2 2.7 24.8 0 34.7-8.2a65.5 65.5 0 0 0 21.6-41.6 58 58 0 0 0-16.7-42.5c-2.3-2.3-7.7-7.6-9.8-7a1.4 1.4 0 0 0-1 1l-.1.7a6.7 6.7 0 0 0-2.2-2.1c-1.3-.6-2.4.4-3.1 1.2a9.4 9.4 0 0 0-2.7-5.7 55.9 55.9 0 0 0-24.7-13 31.7 31.7 0 0 0-.5-.9 59.2 59.2 0 0 0-1.3-1.6 68.7 68.7 0 0 0-1.9-21.5c-.7-3.2 1-7 2.6-9.6a48 48 0 0 0 4.6 18.9 27.2 27.2 0 0 1 2.9 8.3c.4 2.1.8 4 2.7 3.7 1.5-.3 1.9-2.3 2.8-8.1a55.7 55.7 0 0 1 5.6-18.9l.9-2a57 57 0 0 1-1.9 23.5c-1.7 4.6-1.9 7.1-.6 8.5 1.3 1.4 3.7 1 5.5.4 2.8-.9 3.6-1.5 4.6-2.2a19.7 19.7 0 0 1 4.7-2.6c3.8-1.6 6.8-7.3 8.8-11.5l-1.4 3.6-3.2 8.8a14.4 14.4 0 0 1-6.9 8 18.2 18.2 0 0 1-2.4-.8c-1.3-.6-2.4-1-3.4-.6a3 3 0 0 0-1.6 2 2 2 0 0 0 .3 2c.7.9 2.2 1.2 4 .8a14 14 0 0 0 3.4-1.1 12 12 0 0 0 4.5 0c2-.3 11.2-4.6 14.8-6.8a20 20 0 0 1 8-1.4c-.4 2.7-1.4 4.8-2.9 5.6-2 1.2-11.3 5.7-13.7 6.7a22.4 22.4 0 0 1-5.9 1.8c-.6 0-1.8.1-1.8 1.2 0 1.1 1 1.5 3.1 2l5.4 1c2 1.3 23.7 15.4 28.8 43 .4 2 .6 4.2.5 6.3l-.6 1c-.8 1.3-.9 2.3-.3 2.9a1.2 1.2 0 0 0 1.4.3c.7-.4 1.3-1.6 1.5-3.5 6.3-10.3 8.4-12.5 16.7-15.6 2.3-.8 10.1-2.3 15.2 2.1 4.4 3.8 5.6 10.8 3.6 21-3.7 19.4-17 28-28.3 29.4a20.7 20.7 0 0 1-6 0c1-5.2 1-7.5-.4-8.3-1.3-.7-2.8.5-4 1.8-2.5 2.4-2.1 4.4-1.7 5.3.6 1.2 1.9 2.2 3.7 2.8 0 .5-.2 1-.3 1.4a79.3 79.3 0 0 0-2 23.7c-13.6-3.5-31.2-6-43.6 0-7.4 3.6-8.5 8.4-8 12a103.9 103.9 0 0 0-35.7 13.7c-1.4 1.3-3.5 1.6-6 1.3-8.3-13.2-23.8-20.6-31.6-24.4a83.5 83.5 0 0 0-44.4-7.4h-.4l-.3.4c-.2.2-2.1 2.5-1.3 4.8.6 1.6 2.4 2.6 5.4 3 1.4.2 3.5.4 6 .5 10.6.8 30 2 38.9 10.2a71.4 71.4 0 0 0 19.1 12.6 34.6 34.6 0 0 0 7.3 2.2 32.5 32.5 0 0 1 4.5 14 41 41 0 0 1-17.5 35.2c-13.3 9.2-28 6.7-42.3 4.2-13.8-2.4-36.6-6.3-45.9-23.7a68.6 68.6 0 0 0 13.2-1.6c8.4 3.9 19.9-3.8 24.2-13 2.8-6 3-13.8.2-20.6-2.2-5.8-6.2-10-11-12-9.5-3.6-20.2 2.3-26.2 9.4-8.6 10.2-8.1 25.1-3.7 35.7h-17.5a21.6 21.6 0 0 1-6.3-.5c.7-14.8-.7-28-7.6-29.6-3-.7-5.7.1-7.4 2.4-3 4-2.8 11.6.5 18a21.4 21.4 0 0 0 5.1 6.7 21.1 21.1 0 0 0 7.2 4 182.8 182.8 0 0 1-.5 7.2 115.9 115.9 0 0 0-9.3-.5 72.1 72.1 0 0 0-53.1 30.4c-13.2 20.6-2.8 39.8 10.2 50 12.4 9.7 30.1 12 54.2 6.8a46.4 46.4 0 0 0 28.3-23.3c5.2-9 7.3-18.2 5.5-24-1.8-6-8.2-10-14.7-12a14 14 0 0 0-6-5.4c-3.6-1.6-8-1.4-12.8.6a2 2 0 0 1-2-.3 2.1 2.1 0 0 1-.8-1 2.2 2.2 0 0 1 0-1c.8-5.3 1.7-11.5 2.3-18 21.7 2.6 28.5 11.6 33.4 20.8a43.4 43.4 0 0 1 2.3 32c-.7 1.8-.7 3.2 0 4.3 1.5 2.4 6.1 2.4 11.5 2.4 5.1 0 11 0 12.3 2.6.9 1.8-.4 5.2-3.8 9.9a4 4 0 0 0-.6 3.4c1.9 7 22.1 16 40 24l11.4 5.3.1 1a8 8 0 0 0 2.6 5 7.9 7.9 0 0 0 5.3 2.1h.4c1.8 0 3.7-.4 4-1.9.3-1.8-2.5-3.8-10.4-7.6-1.4-15-2.3-45.8 13-55.2 3.4-2 7.4-2 11.8 0a60 60 0 0 0 .5 29.8c2.8 10.6 8 20.4 14 26.3 4.9 4.7 9.8 6.3 14 4.6 3-1.4 5-4.5 5.2-8.9 1.1-15-14.7-42.7-29.7-52l-1.5-.9a47 47 0 0 1 1-2.8 41.5 41.5 0 0 1 1.6-3.8c12-19.3 29.1-30.8 45.9-30.8 11 0 20.8 7.6 24.2 19v.1a75.1 75.1 0 0 1 2.3 5.5l1.4 4.2.5 1.8.8 2.5v.1l3.2 9c4.2 12.2 9 26.2 20.3 33a12.8 12.8 0 0 0 8 1 12.3 12.3 0 0 0 4.8-2 12.5 12.5 0 0 0 3.5-4c3-5 3.5-12.2 1.3-20-2.4-8.6 2.5-13 11.2-17.2l1.4-.6c4.2 13.6 8.3 25.8 9.6 29.5 1.8 4.8 16.2 17.7 47.1 24 29.5 6 54.3 6.3 60.3.9 4.8-4.4 18.2-19.7 26.2-28.9l2.8-3.2c2.3-2.7 22.6-26 27.2-36.4 3.7-8.4 6.8-9.5 14.3-12l3.2-1.3a85 85 0 0 0 4.2-1.8c5.4-2.5 10.6-5.4 15.6-8.6a73.3 73.3 0 0 0 5.3-3.9 43.7 43.7 0 0 0 5.4-5 49 49 0 0 0 4.5-6 73.8 73.8 0 0 0 3.9-7 63.7 63.7 0 0 0 3-7.8c5.2-15 1.6-33.2-9.1-46a52.4 52.4 0 0 0-5.6-5l-1.6-1.2c-7-6-28.8-10.6-32-10.6-2.2 0-6.5 7.5-6.8 9.7-.2 2-.8 8.6 1.7 11.6a4 4 0 0 0 3 1.5 43.6 43.6 0 0 1 14.2 2.5h.1a23.5 23.5 0 0 1 11.7 10.4l1.1 2c2.4 5.7 5.7 16.7.2 26v.1a21.6 21.6 0 0 1-2.5 4.2 16.3 16.3 0 0 1-4 3.5c-8.3 5.9-14.4 9-18.4 9.5l-3.1.5a584.4 584.4 0 0 0-2-17.3 121 121 0 0 0-4.8-21c-2.3-7.8-4.7-16-5-24.4v-2.2a37.3 37.3 0 0 1 8.7-27.5 154.9 154.9 0 0 0 9-13.9c.2-1.7-1-3.5-3.2-5.3-2.3-2-12-5.9-24.7-10.1l-6-13c4 1.3 12.4 3.2 17.7-.1a10 10 0 0 0 4.6-8.2c.4-3.8-2.2-7.9-7.6-11.7-4.3-3-10.3-5.8-16.7-8 4.3-3 9.2-7.5 9.2-12.6 0-4.8-2.8-9.1-6.5-12.7a20 20 0 0 0 1.5-2.4 137.6 137.6 0 0 0 17.4-45.4l1.6-6.8a133 133 0 0 0 3.1-16 25 25 0 0 0 9.1-3 59 59 0 0 0 22.8-27.1 17.7 17.7 0 0 0 9.1 2c3.6-.2 7.4-.8 10.7-1.3 5.2-.8 10.6-1.6 12-.2 0 0 .3.4.1 1.5a5 5 0 0 1-1.9 3c-1 .7-1.8 1.7-2.4 2.8a8.8 8.8 0 0 0-1 3.5c-.5 5.2 3 11.7 10.5 19.5a71 71 0 0 0 22.5 15.7c-5.2 6-9.7 13.8-11.7 20.2-7.6 1.2-20.5 5-30 17-13.5 17-11 39.5-4.6 53.5 7.4 16.3 24.6 32.2 46.7 32.2h3a50 50 0 0 0 45.6-39.8c5.7-27-14.3-46.8-15.1-47.7h-.1l-.2-.1c-.4-.3-4.2-2.5-2.3-6.7 2.4-5.2 9.5-15.7 21.3-28.3 4.6-4.8 12.8-11.1 21.4-17.8 14.1-11 28.8-22.3 31.9-30.2a66.3 66.3 0 0 0 3.3-12 98.8 98.8 0 0 1 3.5 31.4c-2.5 27.9-17.8 68.4-18 68.8l-.6 1.7 1.8-.3a47.1 47.1 0 0 1 15.9.3 314.8 314.8 0 0 1-3.2 3.9c-3.1 3.8-6.4 5.9-9.6 6.1-3.5.2-5.8-1.6-8.3-3.6a15.8 15.8 0 0 0-8-4c-9.9-1.3-19.7 12-23.6 20.8-7.1 16-5.3 41 12 55.8a47.6 47.6 0 0 0 40.1 9.6 47.4 47.4 0 0 0 34.5-34.5c4.6-18.6-2.4-39-17-49.3a41.2 41.2 0 0 0-13.2-6.2c3-3.7 6.8-8.7 10.5-14l.6-.9c2.5 2.9 6.5 5.5 12.7 7.4 2 .9 26 10.7 49.6 16.8a27.5 27.5 0 0 0-4.6 5.4c-3.4 5.4-2.9 10.5 1.5 14.6 8 7.7 20.3 13.2 30.2 17.7 8 3.6 16.3 7.3 16.2 10 0 1-1.1 2.8-8.2 5.3-4.5 1.7-10.3 3.4-16.4 5.2-23.8 7-53.4 15.6-58.2 33-2 7.6 1 16.2 9.2 25.6-11.6.4-65 2.8-94.8 12.6a66.4 66.4 0 0 0-34.5 27 74.1 74.1 0 0 0-8.5 17.2l-4.9-2.6c-.4-.2-1.8-1.1-1.8-2.1s1-2 3-3c3.6-2 8.9-6.4 7.7-10.2-1-3-5.4-4-13.7-3-19.6 2.3-33.8 4.4-37.2 9.4a4.1 4.1 0 0 0-.8 1.7l.1 1.9c1.6 6.8 39.8 24 48.9 28 0 .3 0 .8.2 1.5 1.4 9.3 6.6 41 17.3 57l.5.7c12 17.9 20.7 30.9 81.8 39.5 29 4 71.8 5.5 113.3 5.5 49.4 0 96.9-2 116.4-4.2 19.4-2 35.5-4.2 50.5-11a88.5 88.5 0 0 0 40.8-39.2l.1-.2a304 304 0 0 0 12-49.2 1 1 0 0 0 0-.5 1 1 0 0 0-.8-.7 1 1 0 0 0-.5 0c-.4 0-46.5 11-121 16.3-68.7 4.8-176.2 5.8-298.7-17.3-2-4-2.6-5.7-2.7-6.5 11.5 1.3 198.1 22.6 313.6 11.4l32.5-3.1c28.6-2.7 55.6-5.3 77.4-7.9l2-.2.3-.1c8-3.5 47.8-21 49.5-28a3.5 3.5 0 0 0-.6-3c-3-4.3-16-5.6-31.3-7.2l-11.7-1.2c-7.8-1-12-.1-12.9 2.6-1 3.6 4.5 8.5 8.9 10.9 3.4 1.8 4.3 2.9 4.5 3.3l-5.1 2.6-3-1.9c-2.4-2.2-5.2-5.5-8.4-9.2-9-10.8-21.3-25.5-39.5-30.6 2-4.5 2.3-9.5 1-14.3a131 131 0 0 1-1.2-5.3c-.8-3.9-.1-7.2 2-9.2a7 7 0 0 1 1.2-1c5 11 13.1 23 24.3 20.6 6.5-1.3 7.9-4.1 8-6.2 0-6.4-12.2-14.4-22.9-17a15 15 0 0 0-8.4-.2 13 13 0 0 1 .3-9.8 12 12 0 0 1 3-4 11.7 11.7 0 0 1 4.3-2.6c6.1-2 11.6 1.8 17.4 5.7 1.9 1.3 3.8 2.6 5.9 3.8 2.4 1.4 15.3 8.7 27 14.4h.1c2.2.9 4.4 1.6 6.7 2a36.8 36.8 0 0 0 14.8.2c17-3.4 37.1-9.5 45.3-27.4a10 10 0 0 1 3.7 4.3c1.1 2.9 0 6.3-3.3 10.1-16 18.6-6.9 27-6.5 27.4h.1c4.4 3 9 5.4 13.8 7.5-4.4 18.8-8.1 39.4-6.4 51.2 1 7.6 7.9 24.6 17 42.4 3.7 7.2 16.4 31.4 24.5 36.7 1.5 1 2.8 1.3 4 1a17 17 0 0 0 11.7-10.9 10.6 10.6 0 0 0-2.1-10 58.7 58.7 0 0 0-5.5-5.5c-4.2-3.8-9.4-8.5-17.8-21.4l-.4-.6c-11.5-17.8-11.5-17.8-12-38.5v-.3c-.5-11.9-.2-23.9.7-35.8.8-3.2 1.2-4.6.6-5.7-.6-1-1.7-1.2-3.6-1.6a45.5 45.5 0 0 1-8.2-2.3c2.3-9.8 4.7-18.8 6.5-25.4l2-7.6c4-16 13-24.5 36.5-35.4 22.6-10.4 60.5-27.8 97 24.1 19.7 33.4 27.7 59.3 32 73.2l2.4 7.4c3.5 9.9 23.3 36 35.6 51.9a154.8 154.8 0 0 1-6.3 7.5 102 102 0 0 0-15.2-13.8 102.6 102.6 0 0 1-41.8-63.7c-6.4-26.5-13.8-44.2-23.4-55.9a62.5 62.5 0 0 0-35-20.6c-28.3-7.5-37.9 2.2-52.3 17l-.4.3c-13.3 13.6-19 22.3-18.4 28.4.2 1.1.5 2.3 1.2 3.3a7.6 7.6 0 0 0 2.4 2.4c2 1.4 5 2.1 8.5 3 8.5 1.9 19 4.3 24.7 18a42.3 42.3 0 0 1 1.6 4.8c0 1.6.1 3.2.4 4.7l-1.5 1.7a22.7 22.7 0 0 0-4 8 28.4 28.4 0 0 0-.7 10.4c3 29.5 15.8 34.2 30.6 39.6 4.2 1.4 8.4 3.1 12.5 5a98 98 0 0 0 24.4 7.7c10.6 2.3 19 4 21.8 10.9 4 9.3 12.3 17.7 19.8 20a12 12 0 0 0 10.2-1l3.4-2.3c1.1-.5 14.8-7.2 31-24.6 5.2 13 4.7 26.1-1.4 37A40.9 40.9 0 0 1 1849 433a40.3 40.3 0 0 1-16.7 6.6c-18.8 3-43.7-5.4-65.6-12.8-5.3-1.8-10.3-3.5-14.9-4.9-18.4-5.6-25.7-.7-28 1.7-2 2-2.9 4.7-2.2 6.8 1.7 5.2 26 20.7 40.7 23.3 36.5 6 64 7 84 3.3 16.4-3 27.9-9.5 35.2-19.7 12.8-17.9 5.2-46-5.2-59.5l-3.3-4.3-1.2-1.6 4.2-5.6a130 130 0 0 0 23.5-59.9c1.3-10.9.9-18.8-1.2-23.7-1.7-4-6.2-6.4-11.7-7.7a29 29 0 0 0-7.7-10 28.8 28.8 0 0 1-9.6-24.5 43.4 43.4 0 0 0 15.6-4.2c4.9-2.5 7.6-5.7 7.4-8.6 0-1.4-1-3.5-4.7-4.8-6.7-2.5-13.1.2-17.1 7a25 25 0 0 0-3 8.6c-12.1.6-24-3.4-33.1-11.4-5.5-4.6-7.5-9.9-6-15.8 2.6-11 17.3-22.4 32.6-29a26.8 26.8 0 0 0 16.2 11.6c8.5 2.2 17.2.3 20.3-4.4 1.1-1.7 2.4-5.3-1.3-10.2-3.4-4.5-11-5.8-21.3-3.6a76.7 76.7 0 0 0-13.2 4 30.3 30.3 0 0 1-3.4-12.1 25.3 25.3 0 0 1 6.2-19.5c13.8-15.8 46-17.2 46.2-17.2a154.9 154.9 0 0 1 9.2-7.4V121a161.3 161.3 0 0 0-9.7 8Zm-396.1 159.5c-2.1 3-4.2 4.1-6.5 3.8-10.8-1.5-91.5-5.3-116-6.4h-.8c-.9-.7-3.7-4.7-5.3-7.4a50.4 50.4 0 0 0-22-18.8 29.2 29.2 0 0 0-6.6-2c-9.3-1.6-20-3-29.7.8-2.3 1-4.4 2.3-6.4 3.8a43.4 43.4 0 0 0-3.2 2.5 49 49 0 0 0-5.7 5.7 53 53 0 0 0-5.3 7.4 53 53 0 0 0-2.6 4.7 5.6 5.6 0 0 1-2 2.3c-.9.5-1.9.8-2.9.9l-9.9.2c-.4 0-.8 0-1.2-.2a2.8 2.8 0 0 1-1-.8 2.9 2.9 0 0 1-.6-1.2v-1.2a57.8 57.8 0 0 1 11.3-22.1 57 57 0 0 1 41-22.4 66 66 0 0 1 44.7 12.8 130.2 130.2 0 0 1 21.3 27 1 1 0 0 0 .3.3l.5.2c.8 0 80.6 2.3 109.3 9.1l-.7 1Zm-196-135.2c9.8-4 19-5.2 23.8-3.3 3 1.2 4.2 3.6 3.5 7.4a7.6 7.6 0 0 1-4 5.5c-7.2 3.9-21.9 2.1-37.5-1.6a64.4 64.4 0 0 1 14.3-8Zm-193.6-49c1.8-.1 3 .6 3.8 2.3 1.3 2.8 1.2 4.8-.3 5.8-2.3 1.7-7.6 1.3-14-1 3.8-4 7.6-6.7 10.5-7Zm-156.5-78 .2-.3a4.7 4.7 0 0 1 1.6 1 4.8 4.8 0 0 1 1 1.7 3 3 0 0 1-.5 3 2.8 2.8 0 0 1-1 1c-.4.2-.8.3-1.3.3a2.4 2.4 0 0 1-1-.5 2.4 2.4 0 0 1-.8-.9c-.6-1.3 0-3 1.8-5.4Zm-11.4 13c2.3 5.1 4 10.4 3.2 14.2-.1.8-.6 1.5-1.2 2a3.1 3.1 0 0 1-2.3.6 3.2 3.2 0 0 1-2.1-1 3.3 3.3 0 0 1-1-2.2c-.1-3.5 1.5-8.2 3-12.4l.4-1.3Zm18.6 131.5a22.3 22.3 0 0 1-2.2-1c-17.8-8.5-32-17.4-48.2-34.9-14.7-16-15.8-20.5-17-31.4a20.7 20.7 0 0 1 1.2-9 20.6 20.6 0 0 1 5-7.7c5.7-5.6 10.8-8 18-11.5l1-.6a6.2 6.2 0 0 0 3.3-3.5c.3-.8.4-1.7.2-2.6a4.8 4.8 0 0 0-1.1-2.4 5.7 5.7 0 0 0-2-1.3 5.7 5.7 0 0 0-2.2-.5 5.3 5.3 0 0 0-1.3.2 32 32 0 0 0-6.2 3.3 39 39 0 0 1-9.8 5c-.4-7.7 7.4-14.8 16.2-18.6 1.8 2.3 3.6 4.3 6.4 4.5a6.3 6.3 0 0 0 1.7 0c3.3-.7 5-2 5-3.7 0-2.2-3.2-4-6.2-4.5a8.7 8.7 0 0 0-4 .4l-2.1.7c-3.8-5.2-9-12.4-24-4.8a.6.6 0 0 1-.6 0 .6.6 0 0 1-.3-.6c1-5 10.1-9.5 14-11.2a26.4 26.4 0 0 1 14.4-1.5c1.4.2 2.9.5 4.3.9-.3 4.9-.5 8.4 1.4 10.3 1 .8 2.3 1.2 4 .9h.3v-.1c1.6-.8 2.6-1.9 2.8-3.3.4-2.5-1.6-5.2-3.3-7a9.5 9.5 0 0 0-3-2.2c.3-5.3.6-11.8-1.4-18.1a.1.1 0 0 1 .1-.1c3.8.6 7.3 4.3 10.6 11.4l2.5 5 2.6 5.3a139.2 139.2 0 0 1-1.1 3.4 39.3 39.3 0 0 0-3 13.2 5.5 5.5 0 0 0 1.5 3.5 5.4 5.4 0 0 0 7.1.6A5.5 5.5 0 0 0 962 54c1-5-1.3-11.4-4.3-17.7.8-2.7 1.7-5.3 3.3-7.4a8 8 0 0 1 4.9-3c-1.5 2-2.6 4.4-1.4 6.7a4.4 4.4 0 0 0 3.5 2.5 4.7 4.7 0 0 0 2.3-.4 4.8 4.8 0 0 0 1.8-1.5 5.2 5.2 0 0 0 .8-5.3 6.8 6.8 0 0 0-3-3.5 23.4 23.4 0 0 1 6.8-4.3 64.5 64.5 0 0 0 1.6-.7c2.3-1 6.6-2.8 8.2-2.2a.7.7 0 0 1 .4.5c.4 1-.3 5-2.2 10.9a71.1 71.1 0 0 1-2.6 6.6 42.5 42.5 0 0 0-6.2 1.3c-2.5.8-6.5 3.7-7.4 7a5 5 0 0 0-.1 2.6 5 5 0 0 0 1.1 2.2 3.5 3.5 0 0 0 3.6 1.6c3.3-.5 7.3-6 10.4-12.8 5.6-.7 11.8-.7 13.3.6l.2.1c0 .8-2.5 3.5-4.5 5.7-4.7 5.2-10.5 11.7-9.4 16.3.4 1.7 1.7 3 3.6 3.7-2.5.7-8.4 1.4-13.2 2-7.5.9-15.9 1.9-20.5 3.3l-2.9.9c-3 .8-6 1.7-8.8 3.3-8.4 5-11.5 15.6-10.8 24v.2c.7 8.9 1.3 15.9 7.1 27 5.7 10.6 11.8 16.8 34.8 30.6a49.8 49.8 0 0 0 5 2.5l1.2.6a65 65 0 0 1 14 8.8 16.4 16.4 0 0 1-8 4.5 16.3 16.3 0 0 1-9.3-.6Zm-43-117.3 1.4-.5a6.8 6.8 0 0 1 3-.3c2.6.4 4.4 1.8 4.4 2.4 0 .3-.5 1-3.2 1.5a4.2 4.2 0 0 1-1.2.1c-1.7-.2-3-1.5-4.4-3.3Zm8.5-18.2a6.8 6.8 0 0 1 1.6 1.3c2 2 3 4 2.8 5.3a2.4 2.4 0 0 1-1.4 1.6c-1 .2-1.8 0-2.2-.4-1.1-1-1-4.1-.8-7.8Zm40.2 2.2c-3 5.8-6.1 10-8.3 10.3a1.5 1.5 0 0 1-1-.2 1.5 1.5 0 0 1-.6-.6 2.9 2.9 0 0 1-.7-2.9c.7-2.5 4-5 6-5.6a34.5 34.5 0 0 1 4.6-1Zm6.3 155.3c-9.3 5.1-19.4 7.3-23.1 5-1-.8-1.6-1.8-1.5-3.3.1-1.4.9-2.4 2.4-3.2a17 17 0 0 1 7.2-1.2c4.4 0 10 .9 15.5 2.4l-.5.3Zm-88.7 232a8.2 8.2 0 0 1-1.4 6.4 7.8 7.8 0 0 1-4.2 3.2 7.7 7.7 0 0 1-5.3-.4c-7.9-3.3-11.8-8-11.4-10.1 0 0 .4-.8 4.9-.8 3.2 0 8.6.4 17.4 1.8ZM873.4 401a30.8 30.8 0 0 1 11.6 7.7 493.7 493.7 0 0 1 12.7 14c-10.6-1.6-19.8-2.3-22.4-.6a2.3 2.3 0 0 0-1.1 1.6c-.6 3.7 4.8 9 12.7 12.4a9.8 9.8 0 0 0 6.6.4 9.9 9.9 0 0 0 5.4-4 10.4 10.4 0 0 0 1.8-7.2l3.5.6a431 431 0 0 1 33.6 7.3c6.8 2 15.2 7.7 14.8 11 0 1.1-1.4 3.6-12 4.4a128.2 128.2 0 0 1-50.3-6.2 49.6 49.6 0 0 1-18.5-11.2 50.3 50.3 0 0 1-12.1-18c-2.4-6-4-10.4-5.3-14a36 36 0 0 1 19 1.8Zm-111.8-92.3c2.9 1 4.5 3 4.8 5.9.4 3-.3 4.7-2.1 5.2-4.3 1-13.1-5-15.5-11.6 5-.8 9.6-.8 12.9.5Zm46.3-9a2 2 0 0 1 1.2 1 2 2 0 0 1 0 1.5 1.9 1.9 0 0 1-.3.7 1.9 1.9 0 0 1-1.3.7 1.9 1.9 0 0 1-.7 0 9 9 0 0 1-6.1-6.2l7.2 2.2ZM586.2 193.3c-7.9 8.8-6.7 19.8-6.7 20.3l10 37c-32.2 44.5-66.6 53.6-67 53.7l-.3.1c-.8-.2-3-1-8.5-3.8-1.8-1-4-2-6.6-3.1-12.9-6-34.6-15.9-46.9-32.4-8-10.9-10.8-32.7-6.6-53.1a110.1 110.1 0 0 0 1.4-33.8l-.3-1.5-4.9 3c-4.2-12.6-42.7-65.1-47.5-71.1l-.2-.3h-.3c-6.2-2-13.5-5.6-16.4-7.1l32.2-28.9 22.5 29.3.8-1.4c6.7-11.3 25-32.2 45.8-30.6 29 2.3 49 37.3 60.6 66.1.5 1.3-1.2 3.9-3.8 5-1.7.8-4.9 1.3-7-3.3-17.4-35.5-34.7-54-51.5-55.2-16.6-1-27.7 15.7-31.4 21.2-3.7 5.6-3 7.6 5.3 20.4a53.2 53.2 0 0 0 33 24.8c4.3 1.3 11 1.4 18.8 1.5 14.4.2 32.5.5 46.7 8 12.1 6.3 22 18.3 29 35.1l-.2.1Zm-527-54.8c-1 3.2-3.1 4.6-6 4.1-3.9-.6-6.3-3-6.3-6.3 0-3.4 2.8-8.5 11.2-13.4a25.2 25.2 0 0 1 1.2 15.6ZM88.7 212a197.6 197.6 0 0 1-11.6 36.6C71 246.3 38 232.1 32 218a9.2 9.2 0 0 1-.3-7.3 16.6 16.6 0 0 1 1.8-3.3 30 30 0 0 0 17 .9 1.6 1.6 0 0 0 .7-.5 1.6 1.6 0 0 0 .4-.8c.2-2-4-4.6-7.5-5.4a11 11 0 0 0-11.2 3.1 8.7 8.7 0 0 1-.6-.4 5.3 5.3 0 0 1-2.4-6c3.7-16.8 33-33.7 33.3-33.8a207 207 0 0 1 23.8-11c7.4 19.4 5.2 42.1 1.7 58.7Zm-53.8-6.5a8.4 8.4 0 0 1 5.9-2.4 13.3 13.3 0 0 1 8.3 3.2c-2.2.7-9.2 1-14.2-.8Zm307.2-54.2c-1-.2-1.6-.5-1.5-1 .2-1.6 3.8-4.8 9.9-7.2-4.9 7.7-7.5 8.3-8.4 8.2Zm-29.6 10.8c-.5-1.1.7-2.6 1.8-3.7a2.4 2.4 0 0 1 2.5.4c1.4 1 2.7 3.6 2.6 6.5-5.5-1-6.7-2.6-7-3.2Zm-206.7 12.3a2.9 2.9 0 0 1 1.9-1.4h.4a2.9 2.9 0 0 1 2.3 1.3c4.2 5.5 4.4 25.2-9.8 58-1-20.4-1-46.8 5.2-57.9Zm-43.5 162 14.9 24.9v.1a76.3 76.3 0 0 0 34.2 25l65.3 23.8-1.6 7-89-31c-15.9-18.9-38-46.2-42.7-51.9 4.2-1.8 18.8-8.1 40.5-15.6l-21.6 17.6Zm378-41.3-.4.7c-6 14-15.9 34.4-29.2 61L330.2 409l-2 3.5-9.6 18.2-115 10c-1-1.4-3.4-5.4-3.3-9l113.5-10.1h.5l9.9-17.1 56.7-36.5a97 97 0 0 0 33.7-37.3l16.2-31.4-84-11.8a183.4 183.4 0 0 0-10-9.2c50-.7 85.4 5 103.4 16.8Zm-123-55.7a16.3 16.3 0 0 1 5-1.1c2.4-.3 6.2.4 8.4 2.4a4.5 4.5 0 0 1 1.7 3.4v.2a9 9 0 0 1-.1 3.6 9.2 9.2 0 0 1-1.5 3.3 9 9 0 0 1-2.6 2.5 12.8 12.8 0 0 1-12.3-1.2 17.3 17.3 0 0 1-6.1-7 14.8 14.8 0 0 1 7.6-6.1Zm46.6-14.9a17 17 0 0 1 1.4 4.7c.7 3.6-.6 7.8-3.4 11-2.4 2.8-5.4 4.2-8.3 4a7.9 7.9 0 0 1-3.8-1.5 12.2 12.2 0 0 1-3.7-4.2 12.4 12.4 0 0 1-1.4-5.3 12 12 0 0 1 .9-5.2 11.9 11.9 0 0 1 3-4.3c3.4-2.5 7.2-2.7 11-2.8h.6a24.5 24.5 0 0 1 3.7 3.6ZM611.4 107c9.5-1.4 17.3-2.1 24.7 2l.1.1c3.2 1.3 7.5 7.1 8 12.3.2 3.3-1 5.7-3.6 7.3-6.3 3.6-10.4 3.6-15.5 0a76.6 76.6 0 0 1-16.4-21l2.7-.7Zm114.7 54.5-.7 1.2a36.8 36.8 0 0 0-4.5-.3h-2.7a22.3 22.3 0 0 0-.3-8.6 38.2 38.2 0 0 1 8.2 7.7Zm-35.4 5.3c-6.9 11.5-19 21-20.8 20.4h-.2a3 3 0 0 1-1.3-1 3.1 3.1 0 0 1-.7-1.4c-.4-2.2.5-9 17.4-25.7a36.4 36.4 0 0 1 8.7-6.4c1.9 4-.5 9.7-3.2 14.1Zm73.7 23.7a81.2 81.2 0 0 1 2.7 8.1c2.4 8.3 3.4 15.7 2.3 18.1-.2.6-.4.6-.8.4-4.5-1.7-4.8-17-4.3-26.6ZM753.6 178c1.4 1.3 2 3.6 2.2 6.8-3 4.6-6.4 12.6-8.9 19.3-2.7 7.4-5.8 16.6-4.5 18.5a1.4 1.4 0 0 0 1.7.4c3.3-1.3 10.7-17.5 13-30.4.5-2.4.7-4.8.8-7.3 1.2-1.9 1.9-2.3 2-2.4a10 10 0 0 1 2.7 3.6c-.8 9-1.6 29.9 5.2 32.5a2.5 2.5 0 0 0 2.1 0 2.6 2.6 0 0 0 1.4-1.6c2.2-5-2-22.5-6.6-31.3 0-1 .2-1.9.3-2.5a55.8 55.8 0 0 1 23.5 47.2c-.1 6.9-6.2 28-20.8 40.1a37.9 37.9 0 0 1-33 7.7c-2.3-.4-4-.9-5.5-1.3a36.5 36.5 0 0 0-11.6-1.6h-1.3c-12.3 0-19.4-6.8-25.2-12.3l-2.8-2.7c-5.3-4.7-10-7-16.5-10.3-1.7-1-3.5-1.8-5.5-2.8-28.8-23.3-25.6-40.1-21.5-61.3l.4-2.2c2.7-14.5 20-29.2 34.4-33.8 6-2 10.6-1.8 12.8.4l.2.1a38.6 38.6 0 0 0-9 6.7c-8.9 8.8-19.2 20.7-18 27.6a7 7 0 0 0 1.1 2.3 5.1 5.1 0 0 0 2.1 1.5c.3.2.7.3 1 .3 4.2 0 13.3-8.6 18.8-15.7 4.2-5.6 10.3-15.2 7-21.8a23.3 23.3 0 0 1 11.2-2 22.4 22.4 0 0 1 8.5 2.5 20.7 20.7 0 0 1 .7 10.5l-2.8.7c-3.5 1.2-5.5 3.3-6 6-.5 2.8.9 3.7 1.5 4 1.7.7 4.5-.8 6.6-3.8a17.5 17.5 0 0 0 2.4-5 30.8 30.8 0 0 1 6.5 0c-7 12.4-12.8 24.3-8 27.6 5 3.4 10.3 3 14-1 5-5.1 6.6-15.7 1.6-25.2a54.2 54.2 0 0 1 21.8 12Zm1.9 11.5-.3 2.3a83.5 83.5 0 0 1-11 28.5c.6-4.8 6.2-21 11.3-30.8ZM715.4 165a15 15 0 0 1-1.8 3.4c-1.7 2.4-3.6 3.3-4.1 3-.2 0-.4-.6-.2-1.6.4-2.5 2.7-3.7 4.6-4.4a15 15 0 0 1 1.4-.4Zm13.7.4c5.7 9 4.4 19.5-.3 24.4-3 3.3-7.2 3.5-11.4.6-2.6-1.8.5-10.4 9.2-25.5l2.4.5Zm23.8 4.2.4-.8 1.8.6.3.1c-1.5.4-2.3.3-2.6.1Zm45.5 95.9c-.5-1 .4-2.1 1.2-2.9a7.8 7.8 0 0 1 1.6-1.3c.2.9-.1 3.2-.6 5.8-1.2-.4-2-1-2.2-1.6Zm-120.1 41.2c-9.3-8.5-28.6-9.9-40-10.7l-6-.4c-2-.3-3.3-1-3.7-1.7-.3-.8.3-1.8.7-2.4 15-1.4 29.8 1.1 42.8 7.3a74.4 74.4 0 0 1 29.6 21.8 62.4 62.4 0 0 1-23.5-13.9Zm-68.6 24a23 23 0 0 1 9.3-14 9.4 9.4 0 0 1 4.8-1.6c.5 0 1 0 1.4.2 4.8 1.3 7.6 9.4 7.2 15.8a19.1 19.1 0 0 1-6 12.8 28.5 28.5 0 0 1-10.8 5c-5.3-3-7.2-11.6-5.9-18.2Zm-5.6-14.3c3.2-3.8 10.4-9.7 18.3-9.7a14.8 14.8 0 0 1 5.4 1 18 18 0 0 1 10 10.7 24.8 24.8 0 0 1-.3 19c-3.3 7-11.6 13.4-18.4 12.7a28.4 28.4 0 0 0 8.5-4.6c1.8-1.3 6.3-6.6 6.9-14.2.5-7.5-2.7-16.4-8.7-18-2.4-.7-5.2-.1-7.9 1.6-4.9 3.1-9 9.3-10.2 15.4-1.4 6.7.2 15 5.1 19.3a73.9 73.9 0 0 1-11.8 1.1c-4.3-9.7-5.2-24.5 3-34.3ZM592 388a24.7 24.7 0 0 1 2 4.5c2 5.7 1.6 11-1 14.9a12.8 12.8 0 0 1-4.6 4 12.7 12.7 0 0 1-5.9 1.4c-4.6.1-9.3-2.7-11.8-7-1.3-2.5-3.1-7.5.5-13.5 2.2-3.5 6.7-5.4 12.5-5.4 1.3 0 2.5 0 3.7.2a31.6 31.6 0 0 1 4.6 1Zm-22.3-9.2a4.3 4.3 0 0 0 .2 2.3 4.2 4.2 0 0 0 1.3 1.8 4.1 4.1 0 0 0 4.2.6c3-1.3 7.3-2.4 11.2-.7a10.7 10.7 0 0 1 3.5 2.6 32.8 32.8 0 0 0-2.4-.4c-8.4-1-15.2 1.3-18.3 6.2a15 15 0 0 0-.4 15.7 16 16 0 0 0 13.6 8 14.7 14.7 0 0 0 6.8-1.7 15 15 0 0 0 5.2-4.6c3-4.5 3.6-10.4 1.4-16.8a30.2 30.2 0 0 0-1.1-2.8c5.1 2 9.8 5.4 11.2 10 1.6 5.1-.5 13.9-5.3 22.3a44.3 44.3 0 0 1-27 22.3c-23.4 5-40.6 2.9-52.5-6.5-12.2-9.6-22-27.7-9.7-47.1a70 70 0 0 1 51-29.4h.3c3.3 0 6.3.2 9.1.5-.5 5.4-1.3 11.3-2.3 17.7Zm3.2-29.2a19.2 19.2 0 0 1-10.6-9.5c-3-5.7-3.2-12.5-.7-15.8a4.5 4.5 0 0 1 1.6-1.3 4.4 4.4 0 0 1 2-.5c.6 0 1.2 0 1.7.2 4.7 1 6.7 10.9 6 26.9Zm117.9 122a7.9 7.9 0 0 1-1.9.3 5.8 5.8 0 0 1-4-1.3 6 6 0 0 1-2-3.7c4 2 7 3.7 7.9 4.7Zm19.5-60.7c14.2 8.8 29.8 36 28.8 50-.3 3.7-1.6 6.1-4 7.1-3.3 1.4-7.5 0-11.7-4.1a62.2 62.2 0 0 1-14-53.6l1 .6Zm129-22.1c-14.2-51.8.8-77.6 13.3-92.5 12-14.3 20.3-33.2 23-41.2 3.1-9 1.9-15.4-2-26.3-3.4-9.4-3.2-9.4 1.2-11.6l.7-.3c2.3-1.1 3.5-1.3 4-1.3a.8.8 0 0 1 .4 0s.2.5-.4 2.2c-2.2 5.4 8.3 12.8 11.6 15-1 1.8-3.1 6.8-6.6 18.6-1.6 5.6-3.8 12-6.4 19a449 449 0 0 1-2.7 7c-3.3 8.6-8 17-12.4 25-8.5 15.3-17.3 31-17.7 49.5-.2 3.1-.2 6.4-.1 9.8a141 141 0 0 0 4.6 29.3 76.2 76.2 0 0 0 1.8 6.4 53.9 53.9 0 0 0-9 2.9 911 911 0 0 1-3.4-11.6Zm161-152.2a4.5 4.5 0 0 1-.5 4.7 4 4 0 0 1-2 1.2 4 4 0 0 1-2.3-.2c-22.5-6.8-67.7-13.2-86-15.7-4.5-.6-10.3-2.4-12.4-7.9a6 6 0 0 1-.3-1.3c2.8-.2 16-.6 45.6 3.2 18.7 2.4 40.5 8.3 57 13.8l1 2.2Zm17-142.7c-10 .9-21.3-2.3-24.3-7.2-4-6.5-.4-10.5-.2-10.7a13.6 13.6 0 0 1 4.5-3.3 13.4 13.4 0 0 1 5.5-1.1 13.9 13.9 0 0 1 9 3.3 13.6 13.6 0 0 1 3.8 5.8v.2a30.4 30.4 0 0 1 1.6 13Zm32.4-31.5a15.5 15.5 0 0 1-2.4-2.2c-1.2-1.4-1.3-4.2-.8-5.6l.4-.5s.7 0 1.8 2a9.7 9.7 0 0 1 1 6.2Zm50.7 72.5.2-.6 3.4-.4c14.5-.7 25.9 3.7 27.4 7 .7 1.8.4 3.3-1.2 4.6-4.9 4.3-18.3 4.8-27.6-1.2-3.1-2-3-6.2-2.2-9.5ZM1219 41.5a231.4 231.4 0 0 0-10-26.5l.1-.2s1.5-.2 5.7 6c3.3 5 4.5 12.6 4.2 20.6Zm19 119.5a45 45 0 0 1 16.3 47c-4 16.2-17 29.2-33 33-2.2.5-22 4.7-38.2-9.2a47.2 47.2 0 0 1-11.5-53.3c3.8-8.4 12.4-19.7 20.5-19.7h1c2.7.4 4.8 2 7 3.7 2.6 2.1 5.4 4.3 9.6 4 4-.2 7.6-2.6 11.1-6.9l3.9-4.7a39.3 39.3 0 0 1 13.3 6Zm-.8-26.5a12.8 12.8 0 0 1-1.6-7c.4-8.2 7.2-15.4 10.5-16l.4-.1.6.1c.1.1.3.3.3.5 1.5 3.2-3.4 12.4-10.2 22.5Zm292.9 121.3c10.4 2.5 21.2 10.2 21.2 14.9 0 2.4-3.5 3.6-6.3 4.2-10.2 2.1-18-10.6-22-19.4 2-.5 4.3-.5 7 .2Zm58-30.5a33.8 33.8 0 0 1-21-11.7 27.3 27.3 0 0 1-2.8-4.3 27.8 27.8 0 0 1-2-5v-.2a38.3 38.3 0 0 1-1.3-3.9 36.8 36.8 0 0 1-.6-16.3c.3-1.8.9-3.7 1.5-5.4a22.7 22.7 0 0 1 6.7-9.3 29 29 0 0 1 4.8-3.4 25.9 25.9 0 0 1 5-2.2 25.8 25.8 0 0 1 20.6 2l4.6 3.1a31.3 31.3 0 0 1 4 4 .1.1 0 0 1 .1 0 21 21 0 0 1 3 3.9 28.4 28.4 0 0 1 2 4.6 29.3 29.3 0 0 1 1.1 5c.4 1.6.6 3.4.7 5.1a28 28 0 0 1-1.2 11.5 28 28 0 0 1-5.7 10 44.8 44.8 0 0 1-19.5 12.5Zm58.8 4.7-1 2.8a78 78 0 0 0-26.3-7 98 98 0 0 0-11.9-.7 98 98 0 0 0-10.4.4l-1.8.1h-2.5a44 44 0 0 0 16-11.4 30.2 30.2 0 0 0 6.1-10.7 30.3 30.3 0 0 0 1.4-12.3 37.1 37.1 0 0 0-.7-5.4 31.9 31.9 0 0 0-1.2-5.3 30.2 30.2 0 0 0-2.1-5 23.3 23.3 0 0 0-3.4-4.2 33.7 33.7 0 0 0-4.3-4.2 32.2 32.2 0 0 0-5-3.3c-5.5-2.6-11-3.8-16.5-3.3a28 28 0 0 0-5.6 1.1 29 29 0 0 0-5.4 2.4 31.2 31.2 0 0 0-5 3.6 24.7 24.7 0 0 0-7.4 10.1 34.9 34.9 0 0 0-1.7 5.8 38.9 38.9 0 0 0 .7 17.3l1.3 4a29.6 29.6 0 0 0 5.3 10.2 35.6 35.6 0 0 0 18.2 11.6 63 63 0 0 1-9.7 1.4 155.2 155.2 0 0 1-21.8 1.7 84.5 84.5 0 0 1-6.8-.8 98.1 98.1 0 0 1-20.6-5.7l-1.2-.5a80 80 0 0 0-4.2-1.5h-5.7c-4.7 0-9.5 0-14-.6a32.2 32.2 0 0 1-4.7-1 29 29 0 0 1-9.3-5 21.8 21.8 0 0 1-3.1-3.2.7.7 0 0 0-.1 0c-13-13.7-11.5-30.1 4.8-52a241.8 241.8 0 0 1 4-5.3l.3-.6a45 45 0 0 1 5.4-18.2 42.7 42.7 0 0 1 3.4-5.3c14.2-21.7 42.7-20 62.8-12 2 .5 3.8 1.3 5.6 2.2 7.7 3.7 13 9.2 18.7 15.6 1.6 1.6 4.5 2 8.7.9h.1a58.9 58.9 0 0 1 35.9-2.1 39.8 39.8 0 0 1 20.9 12.6 42 42 0 0 1 4.2 4.3 50 50 0 0 1 11 39.5 57.1 57.1 0 0 1-1 5.7 35 35 0 0 1-13.3 21.1 15.5 15.5 0 0 0-4.8 5.7l-.1.4a39.3 39.3 0 0 0-2.2 6Zm18.1 58.3c1 .2 2 .4 2.2.6.2.3-.3 2.2-.9 4.2a.5.5 0 0 0 0 .1c0 .2-1.4 14.8-.8 36.2v.2c.6 21.2.8 21.6 12.5 39.6l.4.6a95.7 95.7 0 0 0 18 21.8 55.9 55.9 0 0 1 5.4 5.3 8.2 8.2 0 0 1 2 3.8 8.4 8.4 0 0 1-.3 4.3 15 15 0 0 1-10.4 9.4c-.5.2-1.2 0-2.2-.7-12-7.8-38.4-62.8-40.6-77.6-1.6-11.3 2.2-31.8 6.4-50.2a48 48 0 0 0 8.3 2.3Zm165.7 117.3a247 247 0 0 0-3.6 2.4 9.5 9.5 0 0 1-8.3.8c-7-2.2-14.8-10-18.5-18.8-3.4-7.8-12.6-9.8-23.3-12.1-7.5-1.6-16-3.4-24-7.5a113 113 0 0 0-12.7-5.2c-14.7-5.4-26.3-9.6-29.2-37.8a22.1 22.1 0 0 1 4.3-16.8l.3-.5.2.6c.7 2.6 1.7 5.1 3 7.5 1.7 5.8 6.2 10.3 14 13.6 8.4 2.6 19.4.5 23.4-7.5 4-8.9.8-18.8-7.4-22.9a30.8 30.8 0 0 0-26.9 1 26.8 26.8 0 0 0-4.5 3l-.4.4a24.1 24.1 0 0 1-.2-3v-.3a42.8 42.8 0 0 0-1.8-5.2c-6-14.8-17.7-17.4-26.1-19.4-3.3-.7-6-1.4-7.8-2.6a5.6 5.6 0 0 1-1.9-1.8 5.8 5.8 0 0 1-.8-2.4c-.7-7 9.8-18.5 17.8-26.6l.3-.4c14.5-14.7 23.2-23.6 50.4-16.4 27.5 7.3 43.9 21 56.9 75 9.1 38.3 27.6 53 42.4 64.9 5.6 4.4 11 8.7 15 13.7a111.4 111.4 0 0 1-30.6 24.3Zm-113.2-97.4 1.4-1.2a25 25 0 0 1 4-2.8 28.8 28.8 0 0 1 25-1c7.2 3.7 10 12.4 6.5 20.2-3.4 6.9-13.3 8.7-20.8 6.4-7.1-3-11.2-7.1-12.7-12.3a1 1 0 0 0 0-.2 32.3 32.3 0 0 1-3-7.2l-.5-1.9Zm157.3 71c10 13 17.3 40 5.1 57-7 10-17.8 16-33.8 19-19.8 3.7-47 2.6-83.3-3.3-15.1-2.8-38-18.3-39-22-.4-1-.2-2.9 1.6-4.7 1.3-1.3 4.5-3.6 11.4-3.6 3.7 0 8.4.7 14.5 2.5l14.8 4.9c22.2 7.4 47.3 15.9 66.6 12.9a42.3 42.3 0 0 0 17.5-7 43 43 0 0 0 12.9-14c6.4-11.5 7-25.3 1.5-39a.8.8 0 0 0-.2-.2l-.3-.4a174 174 0 0 0 6.4-7.6l1 1.3 3.3 4.3Zm9.7-95.7c-3 4.4-12 6-22 .9-2.5-1.2-3.7-2.4-3.6-3.4.3-1.5 4.3-3.6 11.5-4.4a53.3 53.3 0 0 1 14.6.4c.8 2.5.7 4.7-.5 6.5Zm-12.2-52.3c2.6-4.5 6.4-7 10.6-7 1.3.1 2.7.3 4 .8 1.5.6 3.3 1.5 3.4 3 .1 2-2.4 4.5-6.4 6.6a40.9 40.9 0 0 1-14.3 3.9 23.5 23.5 0 0 1 2.7-7.3Zm3-53.4c9.5-2 16.3-1 19.2 2.9 1.6 2 3 5 1.3 7.8-2.6 4-10.5 5.5-18 3.5a25.1 25.1 0 0 1-14.9-10.3 74.3 74.3 0 0 1 12.4-3.9Z"/></svg>
