<svg xmlns="http://www.w3.org/2000/svg" width="1920" height="475" fill="none"><path fill="#529196" d="M229 288c-34 7-131 35-175 48 0 4 4 16 21 33 21 21 27 22 61 22s30 24 54 42 24 1 93 0 25-3 87-42c44-21 64-64 68-75s-2-28-52-28-115-8-157 0Z"/><path fill="#52969B" d="M697 149c-51-5-38 12-46 22a98 98 0 0 0-11 47c2 24-5 7 34 41s34 19 72 21 44-20 50-34 3-40-6-59-41-33-93-38Z"/><path fill="#529196" d="M1232 290c-45 2-60 12-78 29-14 5-43 19-55 33-14 16 8 13 33 33s22 28 37 55 45 11 63 11 118 7 211 0 59-5 76-28 12-56 43-58 52-23 50-46-70-20-121-29-65-20-111-44-45 6-72 24-31 19-76 20ZM910 102c-2-19 5-24 8-25l-3-23c-4-13-5-17-5-37s16-12 31-16 34 13 38 20-3 27 10 27 23 20 27 41-8 48-11 68-22 17-36 18-57-49-59-73ZM193 243c22-10 109-58 150-80 8 0 28-2 41-10 16-10 4-22 0-40s-26 2-71 25-17 3-104 6-157 5-190 30 24 76 56 83 90-2 118-14Z"/></svg>
